<svg xmlns="http://www.w3.org/2000/svg" viewBox="0 0 400 400"><g fill="none" fill-rule="evenodd"><path fill="#F5A623" d="M0 0h400v400H0z"/><g fill-rule="nonzero"><path fill="#291A0F" d="M250.5 96c-.713.133-1.297-.047-1.75-.54a.927.927 0 0 1 .48-.13c.24.007.277-.063.11-.21-1.007-.9-1.87-1.44-2.59-1.62-1.673-.42-1.903-.647-.69-.68.247-.007.26-.07.04-.19-5.867-3.193-11.67-5.383-17.41-6.57-2.327-.48-4.19-.893-5.59-1.24-1.22-.3-2.647-.473-4.28-.52a20.087 20.087 0 0 1-4.31-.59 8.602 8.602 0 0 0-3.56-.17c-1.68.28-2.833.41-3.46.39a61.959 61.959 0 0 0-15.95 1.69c-1.64.393-3.867.797-6.68 1.21-2.273.333-4.483.89-6.63 1.67a1152.71 1152.71 0 0 1-6.07 2.21 416.513 416.513 0 0 0-14.92 5c-5.4 1.92-8.347 2.997-8.84 3.23-2.753 1.287-5.387 3.057-7.9 5.31-2.98 2.667-5.407 5.123-7.28 7.37-.573.68-1.157 1.743-1.75 3.19a14.06 14.06 0 0 1-1.85 3.23c-.207.273-.277.247-.21-.08.487-2.447.313-2.71-.52-.79-.08.18-.147.413-.2.7-.193 1.02-.633 1.87-1.32 2.55-1.013.993-1.61 1.677-1.79 2.05-.473.947-.837 1.93-1.09 2.95-.307 1.207-.643 2.173-1.01 2.9a147.501 147.501 0 0 0-4.67 10.24c-.7 1.7-1.323 2.91-1.87 3.63a30.77 30.77 0 0 0-1.91 2.79c-.473.773-1.14 1.667-2 2.68a14.678 14.678 0 0 0-2.3 3.76c-.147.353-.35.713-.61 1.08-.84 1.2-.56 1.637.84 1.31.221-.05.473-.258.69-.57l2.82-4.07c.156-.237.485-.354.84-.3 1.413.22 1.703.777.87 1.67-.587.627-1.057 1.22-1.41 1.78l-5.53 8.75c-.14.22-.22.533-.24.94-.067 1.227-.673 2.12-1.82 2.68-1.18.58-1.907 1.51-2.18 2.79-.4 1.92.123 2.643 1.57 2.17.547-.18 1.07-.577 1.57-1.19 1.36-1.68 2.73-3.353 4.11-5.02.212-.258.54-.353.79-.23l1.05.51a.44.44 0 0 1 .23.304.586.586 0 0 1-.07.416 70.372 70.372 0 0 1-6.49 9.28 4.796 4.796 0 0 0-.94 1.92c-.273 1.127-.543 1.807-.81 2.04a6.85 6.85 0 0 0-2.25 3.85c-.907 4.3-2.487 5.267-4.74 2.9a1.422 1.422 0 0 1-.39-.86 7.375 7.375 0 0 1 .43-3.11c.096-.263.32-.506.63-.68.953-.547 1.03-1.13.23-1.75-.21-.164-.531-.116-.74.11l-.88.96c-.227.24-.377.187-.45-.16a6.318 6.318 0 0 0-1.04-2.29c-.212-.29-.316-.61-.29-.9a5.362 5.362 0 0 1 1.55-3.47c.24-.24.358-.55.32-.84-.273-2.067-1.403-2.917-3.39-2.55-.32.055-.629-.053-.8-.28a13.543 13.543 0 0 1-2.36-5.36.28.28 0 0 0-.45-.17l-.85.67c-.84-1.193-1-2.84-.48-4.94.487-1.953 1.12-3.633 1.9-5.04a2.36 2.36 0 0 0-.19-2.58c-1.38-1.807-2.433-3.4-3.16-4.78-.04-.067-.387-.587-1.04-1.56-.64-.96-.797-2.14-.47-3.54a3.656 3.656 0 0 0-.01-1.76c-.453-1.747-.49-3.137-.11-4.17.12-.307.153-.62.1-.94-.24-1.467.483-2.377 2.17-2.73 2.787 1.193 4.93.62 6.43-1.72a.45.45 0 0 0-.18-.65 9.52 9.52 0 0 0-3.94-.91.83.83 0 0 1-.74-.44c-2.147-3.967-.807-5.547 4.02-4.74a3.13 3.13 0 0 0 2.64-.77c.047-.04.39.013 1.03.16.342.071.676.032.94-.11a5.077 5.077 0 0 0 2.02-2.02.338.338 0 0 0 .003-.322.383.383 0 0 0-.273-.198c-1.527-.273-1.81-.997-.85-2.17.225-.283.346-.596.34-.88-.08-2.08-1.143-3.39-3.19-3.93-1.753-.46-2.143-1.203-1.17-2.23.264-.283.43-.578.47-.83.153-.9-.123-1.64-.83-2.22-.267-.216-.407-.517-.37-.79.153-1.2.77-1.56 1.85-1.08.82.36 1.24.543 1.26.55 2.527.773 4.707.137 6.54-1.91.553-.62.783-1.973.69-4.06-.033-.653-.417-.883-1.15-.69-.04-1.853.87-2.77 2.73-2.75a1.05 1.05 0 0 0 1-1.4c-.307-.847.2-1.393 1.52-1.64 1.113-.207 1.703-.84 1.77-1.9.025-.35.16-.647.37-.82a6.819 6.819 0 0 1 3.26-1.48c.35-.065.649-.213.85-.42a9.875 9.875 0 0 0 2.05-3.19 2.3 2.3 0 0 0 .16-1.22c-.08-.513-.233-.907-.46-1.18a1.075 1.075 0 0 1-.07-1.26c.84-1.313 1.333-2.477 1.48-3.49a1.83 1.83 0 0 1 .38-.87c1.287-1.56 1.323-3.167.11-4.82-1.04-1.413-1.277-2.807-.71-4.18.116-.278.127-.603.03-.92-.26-.887-.11-1.687.45-2.4.313-.407.607-.827.88-1.26.52-.827 1.15-.853 1.89-.08.368.388.974.431 1.4.1 1.527-1.193 3.037-1.93 4.53-2.21 2.367-.44 3.57-.67 3.61-.69 3.167-1.12 5.93-2.657 8.29-4.61 2.473-2.04 4.137-3.397 4.99-4.07a2.22 2.22 0 0 0 .59-.75 6.079 6.079 0 0 1 2.36-2.56c.267-.163.484-.414.62-.72.553-1.233 1.577-1.767 3.07-1.6.335.037.651-.058.86-.26 1.867-1.773 2.46-2.672 3.62-4.958.139-.266 1.955-1.058 2.54-1.31l.15-.065c1.42-.58 2.782 0 4.35 0 4.774 1.277 7.631.65 13.221 0 1.549.486 2.017.982 2.179 1.375.56 1.34 1.017.701 1.65 2.068.6 1.307 1.333 1.403 2.2.29-.32-2.3.513-3.883 2.5-4.75.321-.139.664-.139.93 0l.77.42c.288.157.603.23.91.21 1.353-.06 2.11.643 2.27 2.11.2 1.847 1.143 1.917 2.83.21a5.767 5.767 0 0 0 1.31-2.08c.247-.7.9-.997 1.96-.89.252.032.552.184.85.43.64.547 1.22.487 1.74-.18.214-.27.502-.43.78-.43l5.47.83c.337 0 4.051-.675 4.22-.42l1.19 1.86c.211.332.566.547.95.574.382.028.745-.134.97-.434 1.133-1.513 1.411.678 4.89-2.39 3.479-3.068 4.554-1.836 7.25.14l5.26.42c.369.032.692-.013.92-.13.973-.493 1.89-.45 2.75.13.213.149.407.42.55.77.66 1.66 1.657 1.837 2.99.53.206-.205.507-.324.84-.33.327 0 .623-.067.89-.2.707-.353 1.113-.533 1.22-.54.78-.073 1.293.29 1.54 1.09.078.265.33.442.61.43a2.29 2.29 0 0 1 1.28.32c.155.088.311.394.41.8l.7 2.88c.072.27.372.459.73.46 1.387.007 2.073-.76 2.06-2.3l4.25.61c.103.014.19.084.228.183.037.1.019.213-.048.297-1.007 1.34-.733 2.477.82 3.41l-.35 4.65c-.033.427.097.543.39.35.233-.153.37-.42.41-.8.167-1.393.267-2.793.3-4.2.873-1.68 2.107-2.31 3.7-1.89.272.075.45.35.42.65-.113 1.167.217 2.123.99 2.87.262.256.41.56.41.84l-.02 4.53c-.653.487-.98 1.117-.98 1.89 0 .16.103.47.31.93.133.287.163.593.09.92a.793.793 0 0 0 .035.47c.057.128.152.195.255.18.28-.033.483-.387.61-1.06.091-.456.444-.816.9-.92 1.453-.32 2.117-1.303 1.99-2.95 1.027-2.487 2.257-2.77 3.69-.85.188.252.24.584.14.89a19.763 19.763 0 0 1-1.62 3.67c-.28.493-.393.93-.34 1.31.133.967.827.773 2.08-.58.627-.68.853-.567.68.34-.267 1.4-.283 2.64-.05 3.72a4.764 4.764 0 0 0-1.6 2.44c-.333 1.18-.127 1.303.62.37l1.69-2.1c1.113.213 2.427-.127 3.94-1.02 1.733-1.027 3.32-.717 4.76.93a.57.57 0 0 1 0 .76c-1.947 2.133-2.767 4.407-2.46 6.82.037.277.264.508.57.58 1.893.42 2.54 1.663 1.94 3.73-.467 1.6.12 2.263 1.76 1.99 1.687-.28 3.213-.03 4.58.75.647.373.637.733-.03 1.08-1.733.893-2.177 1.597-1.33 2.11.18.107.71.227 1.59.36 1.12.173 1.93.777 2.43 1.81.13.267.388.445.68.47 1.087.1 1.987.547 2.7 1.34.228.266.288.612.15.87-.193.367-.537.543-1.03.53-.376-.013-.703.054-.93.19-2.7 1.64-2.45 1.881-2.45 4.516 0 1.862 1.933 2.77 4.32 2.984.214.02.475.21.7.51l1.47 1.91a.5.5 0 0 1 .11.331.294.294 0 0 1-.15.249c-.553.267-1.163.36-1.83.28-1.04-.12-1.253.047-.64.5.113.08.267.15.46.21.947.28 1.537.95 1.77 2.01.074.353.334.64.68.75 2.16.7 2.343 1.798 4.21 2.398 1.54.493 6.07 3.589 5.27 5.162-.14.273-.154.593-.04.88.62 1.593.223 2.803-1.19 3.63-.25.147-.352.443-.23.67.793 1.46 2.09 2.647 3.89 3.56a.46.46 0 0 1 .1.75c-1.453 1.3-1.53 2.197-.23 2.69 1.16.447 1.837 1.283 2.03 2.51.693 4.4-.65 6.667-4.03 6.8-1.053.047-1.177.41-.37 1.09 1.007.84 1.683 1.94 2.03 3.3.077.28.287.527.58.68.673.353.98.88.92 1.58-.047.493-.14 1.03-.28 1.61-.24 1.013-1.047 1.42-2.42 1.22-1.88-.333-2.41-.073-1.59.78.333.34.55.627.65.86.493 1.107.19 1.687-.91 1.74-1.04.04-1.117.333-.23.88a6.977 6.977 0 0 1 2.4 2.45c.167.28.393.51.68.69 1.347.867 1.403 1.717.17 2.55-.241.165-.572.205-.9.11-2.547-.747-3.473-.037-2.78 2.13.54 1.687.813 2.55.82 2.59.333 2.333-.767 3.577-3.3 3.73a1.105 1.105 0 0 0-1.04 1.15c.08 2.053-.28 2.517-1.08 1.39-1.373-1.927-3.203-3.923-5.49-5.99a2.876 2.876 0 0 1-.87-1.48c-.393-1.713-1.127-3.213-2.2-4.5a.875.875 0 0 1-.17-.84c.7-2.247.27-4.133-1.29-5.66-.047-.047-.503-.573-1.37-1.58-.547-.633-1.283-.98-2.21-1.04a2.903 2.903 0 0 0-.54-1.54 66.221 66.221 0 0 0-4.71-12.96l-4.54-8.71a62.147 62.147 0 0 0-7.25-9.58 95.262 95.262 0 0 0-11.75-11.5c-1.113-.647-1.53-.633-1.25.04Z"/><path fill="#40291A" d="M248.75 95.46c-1.653-.353-3.043-1.133-4.17-2.34-.171-.176-.18-.488-.02-.76.227-.393.033-.613-.58-.66a2.778 2.778 0 0 1-.81-.17 264.78 264.78 0 0 0-7.55-2.84c-1.893-.68-4.203-1.177-6.93-1.49a61.124 61.124 0 0 1-6-.98c-2.347-.513-4.337-.787-5.97-.82-8.567-.2-17.557.417-26.97 1.85-3.28.5-6.213 1.233-8.8 2.2-1.193.44-2.54.807-4.04 1.1-1.393.273-2.75.68-4.07 1.22-.973.4-2.087.707-3.34.92-1.173.207-2.303.55-3.39 1.03-1.88.827-2.85 1.25-2.91 1.27a805.915 805.915 0 0 0-11.53 4.45c-4.447 1.76-7.633 3.353-9.56 4.78-2.893 2.147-5.353 4.807-7.38 7.98-.34.52-.59 1.08-.75 1.68-.54 2.013-1.45 3.387-2.73 4.12-.807.46-1.243 2.023-1.31 4.69a66.97 66.97 0 0 1-.71 8.25c-.127.847-.753 3.52-1.88 8.02a54.714 54.714 0 0 0-1.55 16.1c.08 1.64-.067 3.407-.44 5.3-.493 2.493-.69 5.11-.59 7.85.04 1.167-.443 2.05-1.45 2.65-1.887 1.12-2.687 2.833-2.4 5.14a1.49 1.49 0 0 1-.16.93c-2.407 4.453-3.433 9.24-3.08 14.36a1.54 1.54 0 0 1-.01.3c-.12.82.007.683.38-.41a5.527 5.527 0 0 1 .91-1.68 100.647 100.647 0 0 1-1.14 8.22c-.313 1.7-.337 4.043-.07 7.03.553 6.273.823 14.923.81 25.95 0 .34.017.333.05-.02.187-1.887.28-3.78.28-5.68-.007-4.26-.023-4.26-.05 0-.027 4.173.123 8.34.45 12.5l-.08.5-.7 3.69c-.066.342-.282.604-.55.67-.893.227-1.297-.31-1.21-1.61.107-1.633-.627-2.487-2.2-2.56-.382-.02-.703-.108-.91-.25l-3.6-2.44a10.15 10.15 0 0 1-.83-5.76c.03-.191 0-.358-.08-.44-.107-.107-.23-.047-.37.18-.873 1.46-1.8 2.95-2.78 4.47-.513.787-.75.71-.71-.23l.21-4.46a1.27 1.27 0 0 0-1.53-1.3c-1.32.273-2.053-.13-2.2-1.21-.107-.773-.59-1.727-1.45-2.86-.165-.222-.458-.365-.8-.39-.953-.06-1.32-.543-1.1-1.45.073-.287.19-.297.35-.03.233.387.31-.403.23-2.37-.02-.444-.223-.886-.57-1.24l-2.82-2.79c-.257-.257-.41-.564-.43-.86l-.2-3.76c.027-2.3-.317-4.53-1.03-6.69a24.67 24.67 0 0 1-1.22-6.81c-.173-4.647-.493-7.397-.96-8.25-2.427-4.447-2.697-9.3-.81-14.56.307-.867.057-1.677-.75-2.43-.26-.248-.438-.526-.51-.8-.673-2.68-.387-5.25.86-7.71l.85-.67a.28.28 0 0 1 .45.17 13.543 13.543 0 0 0 2.36 5.36c.171.227.48.335.8.28 1.987-.367 3.117.483 3.39 2.55.038.29-.08.6-.32.84a5.362 5.362 0 0 0-1.55 3.47c-.026.29.078.61.29.9.5.693.847 1.457 1.04 2.29.073.347.223.4.45.16l.88-.96c.209-.226.53-.274.74-.11.8.62.723 1.203-.23 1.75-.31.174-.534.417-.63.68a7.375 7.375 0 0 0-.43 3.11c.026.317.163.62.39.86 2.253 2.367 3.833 1.4 4.74-2.9a6.85 6.85 0 0 1 2.25-3.85c.267-.233.537-.913.81-2.04.18-.733.493-1.373.94-1.92a70.372 70.372 0 0 0 6.49-9.28c.074-.129.1-.28.07-.416a.44.44 0 0 0-.23-.304l-1.05-.51c-.25-.123-.578-.028-.79.23-1.38 1.667-2.75 3.34-4.11 5.02-.5.613-1.023 1.01-1.57 1.19-1.447.473-1.97-.25-1.57-2.17.273-1.28 1-2.21 2.18-2.79 1.147-.56 1.753-1.453 1.82-2.68.02-.407.1-.72.24-.94l5.53-8.75c.353-.56.823-1.153 1.41-1.78.833-.893.543-1.45-.87-1.67-.355-.054-.684.063-.84.3l-2.82 4.07c-.217.312-.469.52-.69.57-1.4.327-1.68-.11-.84-1.31.26-.367.463-.727.61-1.08a14.678 14.678 0 0 1 2.3-3.76c.86-1.013 1.527-1.907 2-2.68a30.77 30.77 0 0 1 1.91-2.79c.547-.72 1.17-1.93 1.87-3.63a147.501 147.501 0 0 1 4.67-10.24c.367-.727.703-1.693 1.01-2.9.253-1.02.617-2.003 1.09-2.95.18-.373.777-1.057 1.79-2.05.687-.68 1.127-1.53 1.32-2.55.053-.287.12-.52.2-.7.833-1.92 1.007-1.657.52.79-.067.327.003.353.21.08a14.06 14.06 0 0 0 1.85-3.23c.593-1.447 1.177-2.51 1.75-3.19 1.873-2.247 4.3-4.703 7.28-7.37 2.513-2.253 5.147-4.023 7.9-5.31.493-.233 3.44-1.31 8.84-3.23 4.94-1.76 9.913-3.427 14.92-5 .087-.027 2.11-.763 6.07-2.21a33.663 33.663 0 0 1 6.63-1.67c2.813-.413 5.04-.817 6.68-1.21a61.959 61.959 0 0 1 15.95-1.69c.627.02 1.78-.11 3.46-.39a8.602 8.602 0 0 1 3.56.17c1.42.353 2.857.55 4.31.59 1.633.047 3.06.22 4.28.52 1.4.347 3.263.76 5.59 1.24 5.74 1.187 11.543 3.377 17.41 6.57.22.12.207.183-.04.19-1.213.033-.983.26.69.68.72.18 1.583.72 2.59 1.62.167.147.13.217-.11.21a.927.927 0 0 0-.48.13Z"/><path fill="#673D23" d="M248.75 95.46c.453.493 1.037.673 1.75.54-.28-.673.137-.687 1.25-.04a95.262 95.262 0 0 1 11.75 11.5c-.76.067-1.287-.18-1.58-.74-.15-.287-.397-.478-.66-.51-1.9-.227-3.417-1.13-4.55-2.71-3.5-4.38-7.83-7.65-12.99-9.81-.255-.109-.586-.102-.92.02-.727.267-1.427.157-2.1-.33-.26-.18-.223-.26.11-.24l.88.06c.413.027.427-.047.04-.22-13.353-5.8-27.157-7.31-41.41-4.53-1.253.247-2.983.433-5.19.56a24.3 24.3 0 0 0-5.22.89c-3.473 1-5.24 1.507-5.3 1.52-2.173.5-4.34 1.013-6.5 1.54-1.067.26-2.29.733-3.67 1.42a28.235 28.235 0 0 1-3.66 1.52 60.646 60.646 0 0 0-5.47 2.13 29.184 29.184 0 0 1-5.63 1.86c-4.493.98-8.907 2.247-13.24 3.8-1.86.66-4.307 2.48-7.34 5.46-.073.067-.883.71-2.43 1.93a6.444 6.444 0 0 0-1.93 2.53c-.84 1.96-1.287 2.997-1.34 3.11-.6 1.227-.97 2.52-1.11 3.88-.247 2.447-.373 3.707-.38 3.78-.42 2.46-.7 4.933-.84 7.42-.027.507-.25 1.6-.67 3.28-.227.927-.36 2.067-.4 3.42-.04 1.327-.59 3.92-1.65 7.78a19.69 19.69 0 0 0-.72 6.07c.2 5.133.24 8.35.12 9.65-.187 2.08-.903 4.327-2.15 6.74-.98 1.893-1.66 3.623-2.04 5.19-.6 2.447-1.287 4.873-2.06 7.28-1.353 1.753-2 3.767-1.94 6.04a3.929 3.929 0 0 1-.6 2.25 5.527 5.527 0 0 0-.91 1.68c-.373 1.093-.5 1.23-.38.41a1.54 1.54 0 0 0 .01-.3c-.353-5.12.673-9.907 3.08-14.36a1.49 1.49 0 0 0 .16-.93c-.287-2.307.513-4.02 2.4-5.14 1.007-.6 1.49-1.483 1.45-2.65-.1-2.74.097-5.357.59-7.85.373-1.893.52-3.66.44-5.3a54.714 54.714 0 0 1 1.55-16.1c1.127-4.5 1.753-7.173 1.88-8.02a66.97 66.97 0 0 0 .71-8.25c.067-2.667.503-4.23 1.31-4.69 1.28-.733 2.19-2.107 2.73-4.12.16-.6.41-1.16.75-1.68 2.027-3.173 4.487-5.833 7.38-7.98 1.927-1.427 5.113-3.02 9.56-4.78a805.915 805.915 0 0 1 11.53-4.45c.06-.02 1.03-.443 2.91-1.27a14.647 14.647 0 0 1 3.39-1.03c1.253-.213 2.367-.52 3.34-.92 1.32-.54 2.677-.947 4.07-1.22 1.5-.293 2.847-.66 4.04-1.1 2.587-.967 5.52-1.7 8.8-2.2 9.413-1.433 18.403-2.05 26.97-1.85 1.633.033 3.623.307 5.97.82 1.987.427 3.987.753 6 .98 2.727.313 5.037.81 6.93 1.49a264.78 264.78 0 0 1 7.55 2.84c.213.087.483.143.81.17.613.047.807.267.58.66-.16.272-.151.584.02.76 1.127 1.207 2.517 1.987 4.17 2.34Z"/><path fill="#874F2D" d="M256.71 103.5c-2.4-1.513-4.747-3.09-7.04-4.73-2.6-1.86-5.04-3.267-7.32-4.22a148.31 148.31 0 0 0-8.04-3.11c-.58-.207-2.213-.483-4.9-.83-1.3-.167-2.933-.453-4.9-.86a54.113 54.113 0 0 0-14.95-.98c-.247.02-2.813.397-7.7 1.13-2.58.387-5.18.593-7.8.62-3.78.033-6.53.463-8.25 1.29-1.32.64-3.007 1.12-5.06 1.44-2.22.347-4.497 1.257-6.83 2.73a1.965 1.965 0 0 1-.91.3 9.996 9.996 0 0 0-3.97 1.21c-2.133 1.18-3.42 1.84-3.86 1.98-3.1.98-6.373 1.58-9.82 1.8-1.66.107-2.993.827-4 2.16-.6.787-1.787 1.38-3.56 1.78-.333.073-.62.217-.86.43a71.633 71.633 0 0 1-5.25 4.17c-2.08 1.507-3.47 2.873-4.17 4.1-1.007 1.753-1.597 3.687-1.77 5.8l-.79 1.54c-.493 1.46-.8 2.95-.92 4.47-.147 1.873-.38 3.353-.7 4.44-2.087 7.1-3.2 13.797-3.34 20.09-.093 4.253-.327 7.73-.7 10.43-.12.827-.527 1.967-1.22 3.42-.54 1.127-.9 2.32-1.08 3.58a1.46 1.46 0 0 1-.42.86l-.41.42c-.227.22-.375.52-.42.85a14.386 14.386 0 0 1-1.1 3.75c-.46 1.027-.857 2.223-1.19 3.59a10.63 10.63 0 0 1-1.96 4.06c.773-2.407 1.46-4.833 2.06-7.28.38-1.567 1.06-3.297 2.04-5.19 1.247-2.413 1.963-4.66 2.15-6.74.12-1.3.08-4.517-.12-9.65-.08-2.027.16-4.05.72-6.07 1.06-3.86 1.61-6.453 1.65-7.78.04-1.353.173-2.493.4-3.42.42-1.68.643-2.773.67-3.28.14-2.487.42-4.96.84-7.42.007-.073.133-1.333.38-3.78.14-1.36.51-2.653 1.11-3.88.053-.113.5-1.15 1.34-3.11a6.444 6.444 0 0 1 1.93-2.53 193.58 193.58 0 0 0 2.43-1.93c3.033-2.98 5.48-4.8 7.34-5.46a106.367 106.367 0 0 1 13.24-3.8 29.184 29.184 0 0 0 5.63-1.86c1.793-.8 3.617-1.51 5.47-2.13a28.235 28.235 0 0 0 3.66-1.52c1.38-.687 2.603-1.16 3.67-1.42a508.17 508.17 0 0 1 6.5-1.54c.06-.013 1.827-.52 5.3-1.52a24.3 24.3 0 0 1 5.22-.89c2.207-.127 3.937-.313 5.19-.56 14.253-2.78 28.057-1.27 41.41 4.53.387.173.373.247-.04.22l-.88-.06c-.333-.02-.37.06-.11.24.673.487 1.373.597 2.1.33.334-.122.665-.129.92-.02 5.16 2.16 9.49 5.43 12.99 9.81Z"/><path fill="#874F2D" d="M256.71 103.5c1.133 1.58 2.65 2.483 4.55 2.71.263.032.51.223.66.51.293.56.82.807 1.58.74a62.147 62.147 0 0 1 7.25 9.58c-.073.64-.387.773-.94.4-2.44-1.68-4.81-3.863-7.11-6.55-.4-.46-1.14-1.097-2.22-1.91a7.218 7.218 0 0 1-1.99-2.28c-.18-.313-.4-.553-.66-.72a88.345 88.345 0 0 1-8.27-6.04c-1.913-1.573-4.497-2.99-7.75-4.25-4.74-1.847-8.867-3.05-12.38-3.61a171.864 171.864 0 0 0-16.1-1.82c-2.14-.14-4.48-.073-7.02.2-3.86.42-6.213.6-7.06.54a27.661 27.661 0 0 0-8.47.66c-4.48 1.067-6.87 1.63-7.17 1.69a34.67 34.67 0 0 0-7.01 2.35c-1.1.507-2.57 1.01-4.41 1.51a16.153 16.153 0 0 0-4.34 1.9c-1.333.833-2.5 1.373-3.5 1.62-1.907.473-3.19.73-3.85.77-2.74.173-5.237 1.013-7.49 2.52a268.447 268.447 0 0 0-10.55 7.44c-1.493 1.107-2.74 2.36-3.74 3.76a78.016 78.016 0 0 0-2.97 4.49c.173-2.113.763-4.047 1.77-5.8.7-1.227 2.09-2.593 4.17-4.1a71.633 71.633 0 0 0 5.25-4.17c.24-.213.527-.357.86-.43 1.773-.4 2.96-.993 3.56-1.78 1.007-1.333 2.34-2.053 4-2.16 3.447-.22 6.72-.82 9.82-1.8.44-.14 1.727-.8 3.86-1.98a9.996 9.996 0 0 1 3.97-1.21c.333-.027.637-.127.91-.3 2.333-1.473 4.61-2.383 6.83-2.73 2.053-.32 3.74-.8 5.06-1.44 1.72-.827 4.47-1.257 8.25-1.29 2.62-.027 5.22-.233 7.8-.62 4.887-.733 7.453-1.11 7.7-1.13a54.113 54.113 0 0 1 14.95.98c1.967.407 3.6.693 4.9.86 2.687.347 4.32.623 4.9.83a148.31 148.31 0 0 1 8.04 3.11c2.28.953 4.72 2.36 7.32 4.22 2.293 1.64 4.64 3.217 7.04 4.73Z"/><path fill="#A26134" d="m270.75 117.04 4.54 8.71a664.239 664.239 0 0 0-10.35-11.69 57.469 57.469 0 0 0-8.66-7.81c-3.807-2.787-7.09-4.827-9.85-6.12a30.55 30.55 0 0 0-8.38-2.53c-3.5-.527-5.993-.973-7.48-1.34-9.04-2.213-18.227-2.857-27.56-1.93-1.493.147-3.433.057-5.82-.27-3-.413-6.167-.083-9.5.99a107.295 107.295 0 0 0-13.05 5.17c-.26.127-.58.193-.96.2-.807.027-1.637.283-2.49.77-1.6.9-2.93 1.673-3.99 2.32a20.28 20.28 0 0 1-4.15 1.91 58.738 58.738 0 0 0-10.55 4.65c-.033.02-.767.383-2.2 1.09-1.627.807-2.867 1.997-3.72 3.57a1752.42 1752.42 0 0 0-1.33 2.43c-1.087 1.56-2.483 3.11-4.19 4.65-2.24 2.027-3.74 4.58-4.5 7.66-.033.147-.323 1.143-.87 2.99-.44 1.493-.523 3.11-.25 4.85.333 2.153-.133 4.163-1.4 6.03-.193.287-.307.59-.34.91a384.8 384.8 0 0 1-2.48 18.29c-.92 5.767-2.67 11.843-5.25 18.23-.173.44-.317.887-.43 1.34-.26 1.02-.733 1.87-1.42 2.55a1.873 1.873 0 0 0-.49.82c-.473 1.933-.91 3.877-1.31 5.83-.367 1.793-.58 3.767-.64 5.92a301.46 301.46 0 0 1-.41 9.51 47.49 47.49 0 0 0 .28 8.49c.573 4.653.807 7.493.7 8.52a37.196 37.196 0 0 0 .19 9.55c.327 2.18.423 4.157.29 5.93a89.024 89.024 0 0 0-.25 6.93c0 .38.197 1.577.59 3.59.22 1.147.197 2.397-.07 3.75-.3 1.5.02 3 .96 4.5.46 3.6.473 5.85.04 6.75-1.013 2.127-1.11 4.293-.29 6.5a14.481 14.481 0 0 1 1 5.75c-1.373-.747-2.86-1.01-4.46-.79 1.493-.047 2.137-.687 1.93-1.92-.052-.3-.01-.62.12-.92.34-.76.31-1.55-.09-2.37l-1.29-5.28c-.087-.353-.097-.67-.03-.95.287-1.287-.08-2.377-1.1-3.27-.627-2.987-1.91-5.633-3.85-7.94-.18-.199-.825-.298-1.63-.25-4.107.267-6.44-1.503-7-5.31-.048-.336.076-.655.32-.82.673-.453 1.317-.283 1.93.51 1.26 1.607 3.02 2.84 5.28 3.7a.72.72 0 0 0 .79-.21c1.227-1.38 1.99-1.35 2.29.09.12.553.343.603.67.15 1.887-2.62 1.703-4.093-.55-4.42-.133-1.073.237-1.997 1.11-2.77.94-.827 1.147-1.807.62-2.94a6.112 6.112 0 0 1-.56-3.29l.08-.5c.553-.813.787-1.71.7-2.69-.44-4.94-.66-9.887-.66-14.84 0-1.413-.113-5.513-.34-12.3-.16-4.9.147-9.777.92-14.63.133-.853.647-3.02 1.54-6.5.493-1.927.937-4.11 1.33-6.55a2.44 2.44 0 0 1 .68-1.32c.967-.973 1.59-2.207 1.87-3.7a17.605 17.605 0 0 1 1.6-4.73c.76-1.507 1.287-2.88 1.58-4.12a37.73 37.73 0 0 1 1.3-4.31c.48-1.293.653-4.993.52-11.1-.047-1.9.153-3.673.6-5.32.473-1.74.977-3.473 1.51-5.2.433-1.4.623-3.543.57-6.43a1.087 1.087 0 0 1 .38-.82c.62-.547.947-1.223.98-2.03.073-1.48.113-2.243.12-2.29.167-1 .213-2.01.14-3.03-.053-.647.01-1.36.19-2.14a7.15 7.15 0 0 0 .14-2.2l.79-1.54c.94-1.533 1.93-3.03 2.97-4.49 1-1.4 2.247-2.653 3.74-3.76a268.447 268.447 0 0 1 10.55-7.44c2.253-1.507 4.75-2.347 7.49-2.52.66-.04 1.943-.297 3.85-.77 1-.247 2.167-.787 3.5-1.62 1.353-.847 2.8-1.48 4.34-1.9 1.84-.5 3.31-1.003 4.41-1.51a34.67 34.67 0 0 1 7.01-2.35c.3-.06 2.69-.623 7.17-1.69a27.661 27.661 0 0 1 8.47-.66c.847.06 3.2-.12 7.06-.54 2.54-.273 4.88-.34 7.02-.2 5.393.353 10.76.96 16.1 1.82 3.513.56 7.64 1.763 12.38 3.61 3.253 1.26 5.837 2.677 7.75 4.25a88.345 88.345 0 0 0 8.27 6.04c.26.167.48.407.66.72a7.218 7.218 0 0 0 1.99 2.28c1.08.813 1.82 1.45 2.22 1.91 2.3 2.687 4.67 4.87 7.11 6.55.553.373.867.24.94-.4Z"/><path fill="#C27542" d="M275.29 125.75a66.221 66.221 0 0 1 4.71 12.96c-1.093-.407-1.57-.163-1.43.73.04.28-.02.31-.18.09a40.216 40.216 0 0 0-2.53-3.09c-.373-.42-1.393-1.243-3.06-2.47-.94-.7-2.02-1.67-3.24-2.91-4.127-4.207-7.08-7.637-8.86-10.29-1.907-2.853-3.577-4.673-5.01-5.46a89.823 89.823 0 0 1-8.42-5.26.33.33 0 0 0-.48.12c-.247.513-.447.31-.6-.61-.233-1.353-.88-2.04-1.94-2.06l-3.75-.06c-1.38-.02-2.52.653-3.42 2.02-2.133 3.26-5.29 4.327-9.47 3.2a1.293 1.293 0 0 1-.842-.737 1.44 1.44 0 0 1 .012-1.163l1.25-2.85c.176-.393.044-.87-.32-1.16-1.2-.953-2.44-1.523-3.72-1.71-1.84-.267-2.817-.413-2.93-.44-5.007-1.167-9.52-.023-13.54 3.43-.887.753-.823.887.19.4.153-.08.18-.047.08.1-1.093 1.62-2.413 3-3.96 4.14a16.704 16.704 0 0 0-3.01 2.86c-.993 1.207-2.25 2.41-3.77 3.61-.467.367-.843.81-1.13 1.33-1 1.793-2.437 2.757-4.31 2.89-2.267.167-3.493.277-3.68.33a21.846 21.846 0 0 0-3.56 1.35c-.92.447-2.08.943-3.48 1.49-4.22 1.653-5.267 4.337-3.14 8.05.94 1.647 2.137 2.9 3.59 3.76 1.773 1.053 3.577 1.357 5.41.91 2.153-.52 4.057-.75 5.71-.69.033 0 1.9.27 5.6.81a91.132 91.132 0 0 1 13.65 3.05c.287.085.558.27.78.53 1.207 1.46 2.79 1.967 4.75 1.52a87.745 87.745 0 0 1 7.53-1.35c2.287-.3 4.453-1.01 6.5-2.13a5.406 5.406 0 0 1 2.8-.67c3.08.1 6.19.427 9.33.98.993.173 2.57.237 4.73.19 1.48-.027 3.083.163 4.81.57 1.76.42 3.763.377 6.01-.13a.419.419 0 0 1 .336.07.52.52 0 0 1 .204.31c.14.6.56.863 1.26.79.373-.045.705.009.93.15 2.433 1.547 2.707 3.63.82 6.25-.9 1.247-.97 2.507-.21 3.78.148.25.416.45.75.56 5.247 1.707 9.587 4.907 13.02 9.6 1.68 2.293 3.96 4.903 6.84 7.83.32.32.543.637.67.95.44 1.047.097 1.39-1.03 1.03a16.359 16.359 0 0 0-3.6-3.73c-.427-.32-1.383-1.183-2.87-2.59-1.16-1.1-2.603-1.733-4.33-1.9-.287-.027-.6.037-.94.19-1.267.573-2.617.75-4.05.53-1.107-.167-2.077.04-2.91.62-.298.208-.614.32-.9.32-2.307.007-4.613-.043-6.92-.15l-1.53-.15c-2.46-.26-4.54.67-6.24 2.79-1.12 1.387-.79 2.043.99 1.97.887-.033 2.01.277 3.37.93 1.84.88 3.213 1.307 4.12 1.28a7.075 7.075 0 0 1 3.38.74c4.36 2.16 7.967 3.147 10.82 2.96.547-.033.64-.22.28-.56.093-.607-.143-1.037-.71-1.29l.25-2.83c.027-.313.184-.6.43-.781a.933.933 0 0 1 .83-.149c2.973.913 5.653 1.793 8.04 2.64.287.1.667.323 1.14.67.84.627 1.29.207 1.35-1.26.98.293 1.487.96 1.52 2a8.32 8.32 0 0 0 .66 2.96c.153.353.217.683.19.99-.14 1.673-.58 1.76-1.32.26-.707-1.44-1.753-2.32-3.14-2.64-1.753-.407-2.793-.687-3.12-.84a90.069 90.069 0 0 0-3.3-1.45c-.74-.307-1.043-.233-.91.22.063.233.296.466.63.63 1.727.86 2.31 2.303 1.75 4.33h-4.75l-4.81-2.22c-.34-.153-.65-.227-.93-.22-1.713.053-3.153-.1-4.32-.46-6.107-1.867-11.927-1.65-17.46.65a2.48 2.48 0 0 1-2.52-.37c-3.127-2.58-3.877-5.24-2.25-7.98.02-.027.65-.673 1.89-1.94.673-.687 1.067-1.553 1.18-2.6.01-.1.07-.186.16-.232a.317.317 0 0 1 .29.002c.553.28.99.153 1.31-.38.122-.198.07-.525-.13-.83-.18-.273-.197-.543-.05-.81a.395.395 0 0 1 .307-.19.67.67 0 0 1 .423.1c.887.54 1.357.007 1.41-1.6a.42.42 0 0 1 .52-.39c1.18.293 2.023.127 2.53-.5.13-.162.378-.18.56-.04.313.253.757.207 1.33-.14 1.027-.633 1.697-1.51 2.01-2.63a.605.605 0 0 0-.33-.71c-2.173-1.027-4.417-1.42-6.73-1.18-2.38.247-3.983.313-4.81.2-2.3-.307-4.91-.803-7.83-1.49-1.527-.36-2.97-.12-4.33.72a.78.78 0 0 1-.83-.02c-1.073-.7-1.927-.48-2.56.66-.167.303-.41.524-.68.62a31.758 31.758 0 0 1-4.61 1.29c-.813.167-1.927.147-3.34-.06-1.127-.16-2.26-.17-3.4-.03a.78.78 0 0 1-.75-.36c-.947-1.493-2.363-2.017-4.25-1.57-.953.227-1.973.623-3.06 1.19-1.78.92-3.493 1.43-5.14 1.53-1.68.1-3.023.823-4.03 2.17-.933 1.253-2.007 2.063-3.22 2.43-.32.093-.38.003-.18-.27.48-.66.377-.88-.31-.66a2.362 2.362 0 0 1-.63.11c-1.507.047-2.197.733-2.07 2.06.025.254.208.535.5.77.367.293.567.667.6 1.12a.333.333 0 0 1-.143.296.402.402 0 0 1-.347.054c-.607-.173-1.21-.35-1.81-.53-.347-.1-.91-.37-1.69-.81-1.1-.62-2.27-.677-3.51-.17a1.65 1.65 0 0 1-.94.08l-1.71-.36c-.203-.047-.339-.268-.32-.52.047-.587-.307-1.563-1.06-2.93a.32.32 0 0 0-.53-.04c-.853 1.093-1.133 2.36-.84 3.8.071.32.323.555.62.58l8.57.6c-.52-.08-.927.033-1.22.34-.239.245-.53.372-.78.34a88.165 88.165 0 0 0-7-.68c-.96-.053-2.13-.577-3.51-1.57-1.333-.96-2.43-1.55-3.29-1.77-1.42-.367-2.86-.51-4.32-.43-1.34.073-2.747.013-4.22-.18-3.2-.42-5.893.54-8.08 2.88-.853.907-1.71 1.637-2.57 2.19a19.863 19.863 0 0 0-2.73 2.09 909.267 909.267 0 0 1-3.21 2.91 200.202 200.202 0 0 1-6.23 4.79c-.38.285-.616.721-.645 1.194-.029.472.152.932.495 1.256 2.04 1.927 4.147 2.823 6.32 2.69.327-.02.643.027.95.14 1.74.633 3.753.653 6.04.06 2.207-.573 5.623-.893 10.25-.96 3.807.293 7.56.067 11.26-.68 2.86-.573 5.223-.883 7.09-.93a366.8 366.8 0 0 0 12.97-.55c.067-.007.81-.01 2.23-.01 2.773 0 3.553-1.37 2.34-4.11-.109-.256-.354-.48-.68-.62-.9-.407-1.4-1.1-1.5-2.08-.039-.353-.183-.655-.4-.84-.82-.7-1.733-1.2-2.74-1.5-1.4-.407-2.347-.76-2.84-1.06-1.18-.7-2.34-1.433-3.48-2.2l-.5-.71c1.447.3 2.663.897 3.65 1.79.55.497 1.224.836 1.95.98 5.4 1.073 9.207 3.67 11.42 7.79.148.263.184.593.1.92-.813 3.32.223 5.617 3.11 6.89.28.125.48.384.53.69.353 2.067 1.233 3.843 2.64 5.33.217.237.329.547.31.86a18.49 18.49 0 0 0 .51 5.96c.227.913.463 1.253.71 1.02.18-.167.293-.14.34.08.207 1.013.623 1.893 1.25 2.64.48.58 1.293 1.007 2.44 1.28 1.813.427 2.973.953 3.48 1.58 1.187 1.493 2.707 2.3 4.56 2.42.343.026.65.15.87.35 2.12 1.933 3.317 4.287 3.59 7.06.173 1.813.42 3.01.74 3.59.62 1.12 1.513 2.027 2.68 2.72a.88.88 0 0 1 .43.74 9.834 9.834 0 0 0 .96 4.12c.134.276.156.602.06.91-.447 1.413-.203 2.653.73 3.72 1.44 1.64 2.45 3.37 3.03 5.19.307.933.727 1.95 1.26 3.05.493 1.027.8 2.11.92 3.25.107 1.087.25 1.907.43 2.46.253.773.527 1.57.82 2.39a.9.9 0 0 1-.94 1.2c-1.967-.193-3.277.663-3.93 2.57-1.147 3.347-3.447 4.85-6.9 4.51a1.08 1.08 0 0 0-.85.29c-1 .94-1.967 1.407-2.9 1.4-2.433-.02-3.67 1.147-3.71 3.5-.16 1.273.553 2.3 2.14 3.08a6.582 6.582 0 0 1 2.72 2.49c.733 1.2 1.933 2.343 3.6 3.43.78.507 1.243 1.32 1.39 2.44a.606.606 0 0 1-.43.65 56.262 56.262 0 0 0-7.02 2.85c-1.073.52-2.447.543-4.12.07-.68-.193-1.23-.2-1.65-.02-.56.24-1.013.62-1.36 1.14-.164.243-.156.584.02.87.407.673.827 1.34 1.26 2 .313.48.627 1.2.94 2.16.547 1.66 1.637 2.873 3.27 3.64.322.158.666.176.93.05.747-.34 1.073-1.127.98-2.36a2.07 2.07 0 0 1 1.45-2.11c.54-.173 1.15-.817 1.83-1.93a.92.92 0 0 1 1.19-.36c2.5 1.22 3.793 3.083 3.88 5.59a.91.91 0 0 0 .43.76 44.755 44.755 0 0 1 8.72 6.86c.133.14.683.563 1.65 1.27 1.04.767.837 1.647-.61 2.64-.507-.227-1.86-.61-4.06-1.15-1.56-.38-2.027-.057-1.4.97.148.25.417.444.75.54a25.694 25.694 0 0 1 9.5 4.93l-.08.75c-2.173-1.853-5.517-2.363-10.03-1.53-1.047.193-2.1.22-3.16.08-.86-.12-1.787.46-2.78 1.74-.145.182-.44.253-.75.18l-2.18-.52c-.35-.083-.623-.247-.75-.45-.94-1.553-2.27-2.453-3.99-2.7-1.94-.28-2.973-.433-3.1-.46-2.887-.62-5.543-.317-7.97.91-1.98 1-3.79 1.523-5.43 1.57a1.27 1.27 0 0 0-.86.36c-1.093 1.1-2.413 1.803-3.96 2.11-1.153.247-3.8.42-7.94.52-1.673.04-3.203.78-4.59 2.22-.073.073-.667.597-1.78 1.57-.88.773-1.34 1.82-1.38 3.14a1.945 1.945 0 0 0 1.72 1.99c1.707.187 2.973.903 3.8 2.15a56.98 56.98 0 0 1 4.42 8.07c.169.37.148.8-.056 1.154a1.285 1.285 0 0 1-.974.636c-1.113.12-2.17-.187-3.17-.92-.633-.467-1.193-.757-1.68-.87a25.74 25.74 0 0 0-1.87-.37 1.359 1.359 0 0 1-.81-.47c-.72-.853-1.513-1.327-2.38-1.42-2.207-.253-3.907-.59-5.1-1.01-.263-.094-.428-.37-.4-.67.153-1.847-.343-3.477-1.49-4.89a1.021 1.021 0 0 1-.2-.86c.253-1.247-.18-1.867-1.3-1.86-.207 0-.5-.097-.88-.29l-.89-.45c-.222-.11-.547.015-.78.3-.98 1.187-2.313 1.593-4 1.22-1.44-.32-2.223-.153-2.35.5-.062.343-.232.605-.44.68-2.48.907-4.983.927-7.51.06-.254-.085-.524-.288-.77-.58-.4-.467-.88-.783-1.44-.95-1.26-.373-1.9-.567-1.92-.58a5.58 5.58 0 0 1-1.89-1.81 1.03 1.03 0 0 0-.76-.47c-1.153-.127-2-.633-2.54-1.52a1.645 1.645 0 0 0-1.04-.77c-4.213-1.007-5.27-1.453-3.17-1.34.507.027.513-.01.02-.11l-5.15-1.05c-.36-.067-.417-.21-.17-.43.38-.347.873-.477 1.48-.39.261.041.503-.06.59-.25.113-.267.03-.413-.25-.44-.356-.042-.631-.186-.69-.36l-1.2-3.37c-.12-.34-.32-.593-.54-.68a6.464 6.464 0 0 1-2.83-2.33c-.163-.248-.25-.572-.25-.93.007-2.067-.54-2.467-1.64-1.2a.3.3 0 0 1-.5-.08c-.68-1.627-1.17-1.717-1.47-.27a.636.636 0 0 1-.59.49c-1.327.06-1.567.74-.72 2.04.193.293.303.59.33.89a18.105 18.105 0 0 1-.57 6.07c-1.447-2.428-2.567-4.414-3.36-5.958-1.189-2.315-1.585-3.262-2.18-4.832.853-.193 1.207-.7 1.06-1.52-.86-4.913-1.81-8.893-2.85-11.94a14.481 14.481 0 0 0-1-5.75c.06-1.2.523-2.18 1.39-2.94a.987.987 0 0 1 .89-.2c2.633.667 3.563 2.503 2.79 5.51-.18.713-.587.82-1.22.32-.773-.62-.857-.537-.25.25.887 1.14 1.463.963 1.73-.53a6.97 6.97 0 0 1 1.1-2.69c.247-.367.313-.337.2.09l-1.17 4.22c-.103.355-.103.69 0 .94l.89 2.32c.11.288.095.612-.04.9-.913 1.88-.337 3.15 1.73 3.81.493.16 1.077.637 1.75 1.43a.43.43 0 0 0 .315.148.471.471 0 0 0 .335-.128c.813-.747 1.7-.75 2.66-.01 1.753 1.34 4.007 1.58 6.76.72a1.7 1.7 0 0 1 2.1 1.06c1.733 4.993 5.503 7.817 11.31 8.47 3.373.387 5.047-1.093 5.02-4.44-.013-1.893.72-3.013 2.2-3.36.284-.063.604.026.87.24 1.887 1.513 4.217 2.95 6.99 4.31 2.033.993 3.61.83 4.73-.49.38-.447.87-1.65 1.47-3.61.54-1.76 1.14-2.937 1.8-3.53 4.46-4 6.08-8.963 4.86-14.89a1.92 1.92 0 0 0-.45-.85c-1.147-1.3-1.72-2.49-1.72-3.57 0-2.667.01-5.333.03-8 .013-2.093.563-3.977 1.65-5.65.653-1 1.01-1.817 1.07-2.45.1-.953.02-1.88-.24-2.78-.533-1.88-.76-3.043-.68-3.49.327-1.853 1.647-3.443 3.96-4.77 1.38-.8 1.353-1.55-.08-2.25-.787-.38-1.087-1.15-.9-2.31.127-.787.14-1.32.04-1.6-.227-.613-.7-.98-1.42-1.1a1.47 1.47 0 0 1-.84-.41 9.061 9.061 0 0 0-4.28-2.5c-1.047-.28-1.297-1.323-.75-3.13a5.143 5.143 0 0 0 .09-2.82 1.42 1.42 0 0 0-.55-.79c-2.073-1.5-4.343-1.927-6.81-1.28-.259.069-.498.293-.65.61-.213.447-.523.703-.93.77-.327.053-.75-.12-1.27-.52-1.807-1.4-3.683-1.64-5.63-.72-1.033.493-1.423 1.477-1.17 2.95.064.351.014.682-.14.92-.74 1.113-1.56 1.22-2.46.32-.04-.04-.293-.447-.76-1.22-.353-.573-.853-.783-1.5-.63-.253.061-.475.314-.58.66a3.276 3.276 0 0 1-1.18 1.71 13.91 13.91 0 0 0-3.33 3.73.91.91 0 0 1-.75.46l-4.94.05c-.827.007-.833-.053-.02-.18l.95-.15c.167-.027.17-.06.01-.1l-8.71-1.96c-.241-.057-.417-.306-.43-.61-.027-.42-.21-.84-.55-1.26-1.053-1.307-1.117-2.713-.19-4.22.12-.187.227-.173.32.04.24.52.407.503.5-.05.22-1.34.713-2.247 1.48-2.72a1.2 1.2 0 0 0 .09-1.98c-.98-.733-1.21-1.617-.69-2.65.087-.173.207-.317.36-.43 1.94-1.46 3.403-2.703 4.39-3.73 1.693-1.767 2.713-2.74 3.06-2.92 2.513-1.327 4.74-.593 6.68 2.2l-1.25.75a.801.801 0 0 0-.5 0c-5.387.293-8.587 2.793-9.6 7.5a1.37 1.37 0 0 0 1.51 1.64c1.467-.187 2.587-.013 3.36.52.38.267.587.41.62.43 3.273 1.78 6.367 1.53 9.28-.75.24-.188.553-.294.89-.3a4.084 4.084 0 0 0 2.3-.77c.285-.2.598-.306.89-.3a48.44 48.44 0 0 1 8.26.93c1.033.207 1.973.067 2.82-.42.327-.187.63-.293.91-.32a97.826 97.826 0 0 0 16.98-3.22c.073-.027.6-.087 1.58-.18.713-.067 1.183-.5 1.41-1.3l.33-1c1.413.84 2.22.66 2.42-.54.067-.393.007-1.027-.18-1.9-.26-1.213-.493-2.75-.7-4.61a1.94 1.94 0 0 1 .71-1.73c1.273-1.027 2.193-2.79 2.76-5.29a3.41 3.41 0 0 0-.39-2.49c-2.28-3.847-5.15-6.95-8.61-9.31-1.06-.727-2.367-1.133-3.92-1.22-2.62-.16-4.633-.44-6.04-.84-2.453-.7-4.643-.89-6.57-.57l-12.75 2.11c-.993.162-1.96-.259-2.43-1.06-.273-.46-.887-.6-1.84-.42a1.68 1.68 0 0 1-.95-.08c-1.5-.593-2.767-.277-3.8.95-1.08 1.287-2.26 2.223-3.54 2.81-.252.116-.585.134-.94.05-.933-.22-1.19.16-.77 1.14.66 1.553.347 2.823-.94 3.81l-6.49 5c-.86.653-1.873.763-3.04.33-1.773-.66-3.22-.813-4.34-.46-.92.293-1.64 1.317-2.16 3.07-.5 1.693-1.01 3.027-1.53 4-2.72 5.12-3.2 10.1-1.44 14.94.987 2.7 1.403 4.97 1.25 6.81-.033.347.007.667.12.96.967 2.5 1.267 5.097.9 7.79-.044.306.046.621.25.87 1.06 1.32 1.18 2.593.36 3.82-1.4 2.08-2.327 3.697-2.78 4.85-.1.26-.273.527-.52.8-.62.7-.917 1.67-.89 2.91.08 3.293-.6 6.793-2.04 10.5-.94-1.5-1.26-3-.96-4.5.267-1.353.29-2.603.07-3.75-.393-2.013-.59-3.21-.59-3.59a89.024 89.024 0 0 1 .25-6.93c.133-1.773.037-3.75-.29-5.93a37.196 37.196 0 0 1-.19-9.55c.107-1.027-.127-3.867-.7-8.52a47.49 47.49 0 0 1-.28-8.49c.187-3.167.323-6.337.41-9.51.06-2.153.273-4.127.64-5.92.4-1.953.837-3.897 1.31-5.83.072-.281.242-.565.49-.82.687-.68 1.16-1.53 1.42-2.55.113-.453.257-.9.43-1.34 2.58-6.387 4.33-12.463 5.25-18.23a384.8 384.8 0 0 0 2.48-18.29c.033-.32.147-.623.34-.91 1.267-1.867 1.733-3.877 1.4-6.03-.273-1.74-.19-3.357.25-4.85.547-1.847.837-2.843.87-2.99.76-3.08 2.26-5.633 4.5-7.66 1.707-1.54 3.103-3.09 4.19-4.65l1.33-2.43c.853-1.573 2.093-2.763 3.72-3.57a248.76 248.76 0 0 0 2.2-1.09c3.373-1.9 6.89-3.45 10.55-4.65a20.28 20.28 0 0 0 4.15-1.91c1.06-.647 2.39-1.42 3.99-2.32.853-.487 1.683-.743 2.49-.77.38-.007.7-.073.96-.2a107.295 107.295 0 0 1 13.05-5.17c3.333-1.073 6.5-1.403 9.5-.99 2.387.327 4.327.417 5.82.27 9.333-.927 18.52-.283 27.56 1.93 1.487.367 3.98.813 7.48 1.34a30.55 30.55 0 0 1 8.38 2.53c2.76 1.293 6.043 3.333 9.85 6.12a57.469 57.469 0 0 1 8.66 7.81 664.239 664.239 0 0 1 10.35 11.69ZM194.5 247.46c-1.013.62-2.66 2.153-4.94 4.6-1.733 1.867-2.837 3.817-3.31 5.85-.493 2.093-.55 4.157-.17 6.19.413 2.207 1.637 4.02 3.67 5.44l3.28 4.49c.197.262.455.466.75.59 2.247.967 3.77 2.56 4.57 4.78.2.56.557 1.27 1.07 2.13.427.72.663 1.51.71 2.37.053 1.067.173 1.9.36 2.5.36 1.167.447 2.033.26 2.6-.827 2.527-.047 3.233 2.34 2.12 2.76-1.3 3.723-.107 2.89 3.58a.904.904 0 0 0 .193.784c.184.218.46.339.747.326 2.393-.127 4.56-.463 6.5-1.01 1.793-.5 3.39-.763 4.79-.79a80.99 80.99 0 0 0 5.46-.29 3 3 0 0 1 1.41.22c1.933.807 3.697.533 5.29-.82a.78.78 0 0 0 .2-.28c.04-.113.067-.22.08-.32.027-.34-.143-.42-.51-.24-2.713 1.307-4.74.67-6.08-1.91a1.275 1.275 0 0 1-.01-1.14c1.193-2.427 2.49-2.817 3.89-1.17 1.513 1.787 2.783 2.267 3.81 1.44 1.48-1.193 1.277-2.037-.61-2.53-2.14-.56-3.5-1.903-4.08-4.03-.34-1.273-1.003-1.977-1.99-2.11-.285-.04-.56.158-.64.46-.4 1.533-.55 3.1-.45 4.7.013.2-.02.363-.1.49-.1.153-.22.28-.36.38-.407.28-.66.483-.76.61-1.16 1.453-2.293 1.623-3.4.51a178.138 178.138 0 0 0-1.82-1.83 18.546 18.546 0 0 1-5.35-7.19 1.49 1.49 0 0 1-.05-.94c.62-2.4-.123-3.73-2.23-3.99-1.713-.213-2.64-.333-2.78-.36a29.169 29.169 0 0 0-7.88-.63c-3.16-1.327-5.34-3.59-6.54-6.79a29.17 29.17 0 0 0 1.33-4.13c.36-1.5.943-2.63 1.75-3.39 3.013-2.847 6.687-3.777 11.02-2.79 2.087.473 2.913-.423 2.48-2.69.953-.7 1.407-1.573 1.36-2.62-.053-1.093-.08-1.683-.08-1.77.053-1.793-.537-3.353-1.77-4.68-.96-1.04-.733-1.503.68-1.39 1.147.093 1.967-.523 2.46-1.85.147-.407 1.063-1.323 2.75-2.75 2.5-2.12 2.353-4.017-.44-5.69-1.233-.74-2.152-1.412-2.31-1.69a25.635 25.635 0 0 1-2.73-7.58c-.007-.033-.257-.82-.75-2.36-.313-.98-.217-1.957.29-2.93a.675.675 0 0 0-.12-.78 5.812 5.812 0 0 1-.74-.93c-.173-.273-.337-.79-.49-1.55-.413-2.047-2.007-3.58-4.78-4.6a.925.925 0 0 0-.722.037.905.905 0 0 0-.468.543c-.6 1.933-.813 3.777-.64 5.53.273 2.86.39 4.417.35 4.67-.293 1.793-1.073 3.323-2.34 4.59a.895.895 0 0 0-.13 1.11c1.493 2.393 1.55 4.417.17 6.07-.222.266-.32.582-.27.86.18.967.533 1.787 1.06 2.46a2.73 2.73 0 0 1 .47 2.46c-.82 2.773-2.357 4.827-4.61 6.16-.311.184-.523.45-.58.73l-.41 2.16Zm8.75 20.75a24.863 24.863 0 0 0 8.44 2.91c.295.045.621-.04.91-.24 1.38-.94 2.763-.983 4.15-.13 2.1 1.287 4.023 2.073 5.77 2.36.587.1.863-.103.83-.61-.017-.283-.248-.542-.58-.65l-6.48-2.1c-3.373-2.107-6.867-3.17-10.48-3.19-1.2-.007-2.053.543-2.56 1.65Z"/><path fill="#40291A" d="M104.79 99.75c.733-.193 1.117.037 1.15.69.093 2.087-.137 3.44-.69 4.06-1.833 2.047-4.013 2.683-6.54 1.91-.02-.007-.44-.19-1.26-.55-1.08-.48-1.697-.12-1.85 1.08-.037.273.103.574.37.79.707.58.983 1.32.83 2.22-.04.252-.206.547-.47.83-.973 1.027-.583 1.77 1.17 2.23 2.047.54 3.11 1.85 3.19 3.93.006.284-.115.597-.34.88-.96 1.173-.677 1.897.85 2.17a.383.383 0 0 1 .273.198.338.338 0 0 1-.003.322 5.077 5.077 0 0 1-2.02 2.02c-.264.142-.598.181-.94.11-.64-.147-.983-.2-1.03-.16a3.13 3.13 0 0 1-2.64.77c-4.827-.807-6.167.773-4.02 4.74a.83.83 0 0 0 .74.44 9.52 9.52 0 0 1 3.94.91.45.45 0 0 1 .18.65c-1.5 2.34-3.643 2.913-6.43 1.72l-.62-5.73c-.047-.433-.04-.75.02-.95.567-1.853.787-3.76.66-5.72-.045-.677.399-1.537 1.19-2.31.927-.907 1.877-1.183 2.85-.83.133.047.733.607 1.8 1.68.747.747 1.693.853 2.84.32a.865.865 0 0 0 .5-.73c.093-1.493-.507-2.62-1.8-3.38-1.967-1.147-2.683-2.74-2.15-4.78a.85.85 0 0 0-.21-.82c-1.667-1.707-1.36-2.943.92-3.71 1.507-.507 4.11-.51 7.81-.01.12.018.242-.02.333-.103a.426.426 0 0 0 .137-.327c-.04-1.633.38-3.153 1.26-4.56Z"/><path fill="#D1854A" d="M280 138.71c.327.46.507.973.54 1.54 1.687 5.26 2.59 8.427 2.71 9.5a1481.9 1481.9 0 0 1 5.29 57.25l-.09 3.33c-.006.293-.119.53-.28.59-.18.067-.23-.203-.15-.81a2.165 2.165 0 0 0-.34-1.46 12.18 12.18 0 0 1-1.76-4.21c-.067-.307-.043-.927.07-1.86.073-.653-.05-1.293-.37-1.92-1.433-2.813-1.693-5.707-.78-8.68.097-.303.08-.636-.05-.94a6.748 6.748 0 0 1-.51-2.71c.033-1.5-.063-2.527-.29-3.08-1.453-3.547-4.283-5.31-8.49-5.29.56-2.027-.023-3.47-1.75-4.33-.334-.164-.567-.397-.63-.63-.133-.453.17-.527.91-.22 1.107.46 2.207.943 3.3 1.45.327.153 1.367.433 3.12.84 1.387.32 2.433 1.2 3.14 2.64.74 1.5 1.18 1.413 1.32-.26.027-.307-.037-.637-.19-.99a8.32 8.32 0 0 1-.66-2.96c-.033-1.04-.54-1.707-1.52-2v-.25c1.127.36 1.47.017 1.03-1.03-.127-.313-.35-.63-.67-.95-2.88-2.927-5.16-5.537-6.84-7.83-3.433-4.693-7.773-7.893-13.02-9.6-.334-.11-.602-.31-.75-.56-.76-1.273-.69-2.533.21-3.78 1.887-2.62 1.613-4.703-.82-6.25-.225-.141-.557-.195-.93-.15-.7.073-1.12-.19-1.26-.79a.52.52 0 0 0-.204-.31.419.419 0 0 0-.336-.07c-2.247.507-4.25.55-6.01.13-1.727-.407-3.33-.597-4.81-.57-2.16.047-3.737-.017-4.73-.19-3.14-.553-6.25-.88-9.33-.98a5.406 5.406 0 0 0-2.8.67 18.423 18.423 0 0 1-6.5 2.13c-2.527.34-5.037.79-7.53 1.35-1.96.447-3.543-.06-4.75-1.52a1.66 1.66 0 0 0-.78-.53 91.132 91.132 0 0 0-13.65-3.05c-3.7-.54-5.567-.81-5.6-.81-1.653-.06-3.557.17-5.71.69-1.833.447-3.637.143-5.41-.91-1.453-.86-2.65-2.113-3.59-3.76-2.127-3.713-1.08-6.397 3.14-8.05 1.4-.547 2.56-1.043 3.48-1.49a21.846 21.846 0 0 1 3.56-1.35c.187-.053 1.413-.163 3.68-.33 1.873-.133 3.31-1.097 4.31-2.89.287-.52.663-.963 1.13-1.33 1.52-1.2 2.777-2.403 3.77-3.61a16.704 16.704 0 0 1 3.01-2.86 16.715 16.715 0 0 0 3.96-4.14c.1-.147.073-.18-.08-.1-1.013.487-1.077.353-.19-.4 4.02-3.453 8.533-4.597 13.54-3.43.113.027 1.09.173 2.93.44 1.28.187 2.52.757 3.72 1.71.364.29.496.767.32 1.16l-1.25 2.85a1.443 1.443 0 0 0-.012 1.163c.16.365.467.634.842.737 4.18 1.127 7.337.06 9.47-3.2.9-1.367 2.04-2.04 3.42-2.02l3.75.06c1.06.02 1.707.707 1.94 2.06.153.92.353 1.123.6.61a.33.33 0 0 1 .48-.12 89.823 89.823 0 0 0 8.42 5.26c1.433.787 3.103 2.607 5.01 5.46 1.78 2.653 4.733 6.083 8.86 10.29 1.22 1.24 2.3 2.21 3.24 2.91 1.667 1.227 2.687 2.05 3.06 2.47a40.216 40.216 0 0 1 2.53 3.09c.16.22.22.19.18-.09-.14-.893.337-1.137 1.43-.73Z"/><path fill="#874F2D" d="M134.96 121.25a7.15 7.15 0 0 1-.14 2.2c-.18.78-.243 1.493-.19 2.14.073 1.02.027 2.03-.14 3.03-.007.047-.047.81-.12 2.29-.033.807-.36 1.483-.98 2.03a1.087 1.087 0 0 0-.38.82c.053 2.887-.137 5.03-.57 6.43a159.348 159.348 0 0 0-1.51 5.2c-.447 1.647-.647 3.42-.6 5.32.133 6.107-.04 9.807-.52 11.1a37.684 37.684 0 0 0-1.3 4.31c-.293 1.24-.82 2.613-1.58 4.12a17.605 17.605 0 0 0-1.6 4.73c-.28 1.493-.903 2.727-1.87 3.7a2.44 2.44 0 0 0-.68 1.32c-.393 2.44-.837 4.623-1.33 6.55-.893 3.48-1.407 5.647-1.54 6.5a76.83 76.83 0 0 0-.92 14.63c.227 6.787.34 10.887.34 12.3 0 4.953.22 9.9.66 14.84a4.018 4.018 0 0 1-.7 2.69c-.327-4.16-.477-8.327-.45-12.5.027-4.26.043-4.26.05 0 0 1.9-.093 3.793-.28 5.68-.033.353-.05.36-.05.02.013-11.027-.257-19.677-.81-25.95-.267-2.987-.243-5.33.07-7.03a100.98 100.98 0 0 0 1.14-8.22 3.929 3.929 0 0 0 .6-2.25c-.06-2.273.587-4.287 1.94-6.04a10.63 10.63 0 0 0 1.96-4.06c.333-1.367.73-2.563 1.19-3.59.533-1.187.9-2.437 1.1-3.75.045-.33.193-.63.42-.85l.41-.42a1.46 1.46 0 0 0 .42-.86c.18-1.26.54-2.453 1.08-3.58.693-1.453 1.1-2.593 1.22-3.42.373-2.7.607-6.177.7-10.43.14-6.293 1.253-12.99 3.34-20.09.32-1.087.553-2.567.7-4.44.12-1.52.427-3.01.92-4.47Z"/><path fill="#392416" d="M280.54 140.25c.927.06 1.663.407 2.21 1.04a123.654 123.654 0 0 0 1.37 1.58c1.56 1.527 1.99 3.413 1.29 5.66a.875.875 0 0 0 .17.84c1.073 1.287 1.807 2.787 2.2 4.5.13.567.434 1.083.87 1.48 2.287 2.067 4.117 4.063 5.49 5.99.8 1.127 1.16.663 1.08-1.39a1.105 1.105 0 0 1 1.04-1.15c2.533-.153 3.633-1.397 3.3-3.73-.007-.04-.28-.903-.82-2.59-.693-2.167.233-2.877 2.78-2.13.328.095.659.055.9-.11 1.233-.833 1.177-1.683-.17-2.55a2.039 2.039 0 0 1-.68-.69 6.977 6.977 0 0 0-2.4-2.45c-.887-.547-.81-.84.23-.88 1.1-.053 1.403-.633.91-1.74-.1-.233-.317-.52-.65-.86-.82-.853-.29-1.113 1.59-.78-.32.32-.34.55-.06.69.24.12.39.207.45.26.753.707 1.083 1.607.99 2.7-.026.32.04.64.19.92l2.23 4.19c.139.265.139.601 0 .91a39.62 39.62 0 0 1-5.79 9.35c-.227.266-.36.572-.38.87-.093 1.26.303 2.353 1.19 3.28.23.243.353.547.34.84-.08 1.727.137 3.273.65 4.64.793 2.093.673 4.033-.36 5.82-.141.25-.41.455-.75.57-1.58.54-2.38 1.66-2.4 3.36-.006.29.119.6.35.87 1.44 1.7 1.283 3.17-.47 4.41a.58.58 0 0 0-.19.73c1.113 2.247.91 4.323-.61 6.23a1.01 1.01 0 0 0-.2.86c.66 2.993.283 5.853-1.13 8.58-.087.173-.123.483-.11.93l.15 3.72c.013.38.087.693.21.88.48.753.433 1.39-.14 1.91a57.65 57.65 0 0 0-1.15 1.05c-.8 1.2-.843 2.597-.13 4.19a1.15 1.15 0 0 1-.32 1.36c-1.48 1.193-1.63 2.533-.45 4.02.222.28.357.587.39.88.453 3.713-.963 4.207-4.25 1.48l-.29-2.79c.76-.18 1.323.12 1.69.9.54 1.147.87 1.363.99.65.051-.303-.02-.63-.2-.92l-2.4-3.88-.75-7.75a1481.9 1481.9 0 0 0-5.29-57.25c-.12-1.073-1.023-4.24-2.71-9.5Zm14.27 48.83c-.46-.173-.64-.07-.54.31.068.258.28.477.57.59 1.107.447 1.247.247.42-.6-.14-.14-.29-.24-.45-.3Z"/><path fill="#DA8E58" d="M270.75 179.96c-.82.027-1.133.293-.94.8.096.228.365.442.73.58 1.78.653 2.457 2.043 2.03 4.17a15.867 15.867 0 0 1-2.29 5.58c-.129.192-.204.513-.21.9l-.04 4.46a.635.635 0 0 1-.58.62l-2.7.23c-.4.031-.72.138-.87.29-1.02 1.027-1.063 1.983-.13 2.87l-2-.17-2.75-.08c-1.267-.087-1.803-.747-1.61-1.98.058-.356.02-.685-.11-.93l-2.2-4.21a2.077 2.077 0 0 0-1.54-1.08 14.888 14.888 0 0 1-3.23-.87c-1.54-.613-2.583-.947-3.13-1-2.26-.207-3.993.583-5.2 2.37a119.751 119.751 0 0 1-2.29 3.3c-1.267 1.767-1.683 3.85-1.25 6.25.167.94.853 1.753 2.06 2.44.647.367 1.16.867 1.54 1.5l-1.33 3c-.4.72-.433 1.443-.1 2.17a42.334 42.334 0 0 0 2.11 4c.527.873 1.47 2.033 2.83 3.48 1.127 1.193 2.297 2.623 3.51 4.29 1.233 1.68 2.903 3.193 5.01 4.54.283.182.617.226.9.12 1.56-.58 1.873-1.753.94-3.52-.547-1.027-.557-2.057-.03-3.09.767-1.52 1.71-2.827 2.83-3.92.733-.713 2.11-1.453 4.13-2.22 3.08-1.173 5.703-3.04 7.87-5.6a3.912 3.912 0 0 1 2.6-.32c1.333.287 2.327-.107 2.98-1.18 1.613 1.867 2.363 4.033 2.25 6.5a.53.53 0 0 1-.53.49c-1.64.013-3.03.567-4.17 1.66a.73.73 0 0 1-.79.14c-2.42-1.04-4.893-.653-7.42 1.16-.987.7-1.423 1.673-1.31 2.92l.58 6.69c.033.346.147.658.33.9a11.51 11.51 0 0 0 3.33 2.95c.047.033.75.29 2.11.77 1.227.44 1.76 1.36 1.6 2.76-.032.293-.206.58-.48.79-1.407 1.113-2.413 2.47-3.02 4.07-.313.827-.777 2.397-1.39 4.71-.607 2.287-.683 4.623-.23 7.01.4 2.113.247 4.087-.46 5.92-1.32 3.427-2.357 6.75-3.11 9.97-.013.06-.213 1.677-.6 4.85-.213 1.747-.747 3.593-1.6 5.54a4.444 4.444 0 0 0-.38 1.85c.007 1.407-.337 2.513-1.03 3.32-.407.467-1.367.877-2.88 1.23-1.46.333-2.74.933-3.84 1.8-1.567 1.227-1.7 2.463-.4 3.71l1.18 1.2c.533.553 1.087.763 1.66.63 1.4-.32 2.04.237 1.92 1.67-.273 3.193-.02 6 .76 8.42.433 1.34.553 2.45.36 3.33-.2.907-.507 2.023-.92 3.35-.227.74.007 1.083.7 1.03.32-.03.612.104.74.34 1.1 2.04 1.317 4.157.65 6.35-.057.199-.013.526.12.9l.67 1.83c.075.219 0 .562-.2.92a8.722 8.722 0 0 0-1.2 4.75c.007.253.09.277.25.07l2.03-2.72c.209-.28.337-.575.37-.85.08-.68.503-.99 1.27-.93-.2.44-.363.893-.49 1.36-.14.527-.32.963-.54 1.31a173.345 173.345 0 0 1-18.43 24.37c.033-1.207.737-2.45 2.11-3.73.253-.233.207-.347-.14-.34-1.547.06-2.623-.407-3.23-1.4a1.45 1.45 0 0 1 .37-1.92c.993-.74 1.437-1.523 1.33-2.35-.04-.287.009-.603.14-.91l1.36-3.09c.167-.373.337-.64.51-.8.947-.86 1.347-1.923 1.2-3.19-.045-.364 0-.697.13-.95l1.98-3.92a.836.836 0 0 0-.05-.84c-.553-.88-.607-1.75-.16-2.61a2.42 2.42 0 0 0 .28-.93c.193-2.54 1.507-4.11 3.94-4.71.339-.085.586-.312.62-.57l.37-2.77c.06-.46.137-.773.23-.94a24.73 24.73 0 0 0 2.68-7.82c.064-.368.022-.712-.12-.97l-2.05-3.71c-.993-1.793-2.33-1.927-4.01-.4-1.707 1.54-3.56 2.32-5.56 2.34a.77.77 0 0 1-.68-.37l-.21-.39a25.694 25.694 0 0 0-9.5-4.93c-.333-.096-.602-.29-.75-.54-.627-1.027-.16-1.35 1.4-.97 2.2.54 3.553.923 4.06 1.15 1.453-.313 1.967-1.303 1.54-2.97-.407-1.587-1.363-2.607-2.87-3.06-.342-.103-.619-.288-.78-.52-1.02-1.48-.66-2.51 1.08-3.09.24-.08.49-.26.75-.54l2.09-2.28c.205-.224.232-.534.06-.7-.62-.62-1.39-.533-2.31.26-.947.82-1.803.787-2.57-.1a1.811 1.811 0 0 0-.77-.54 9.952 9.952 0 0 1-3.6-2.08 1.15 1.15 0 0 0-.87-.28c-3.553.373-4.92-.957-4.1-3.99.293-1.093.537-1.797.73-2.11.4-.64 1.073-1.083 2.02-1.33 1.42-.367 1.677-1.093.77-2.18l-3.83-4.58c-.181-.213-.476-.37-.83-.44-1.1-.207-1.957-.77-2.57-1.69a1.907 1.907 0 0 0-.71-.63l-4.44-2.36c.04-2.353 1.277-3.52 3.71-3.5.933.007 1.9-.46 2.9-1.4a1.08 1.08 0 0 1 .85-.29c3.453.34 5.753-1.163 6.9-4.51.653-1.907 1.963-2.763 3.93-2.57a.9.9 0 0 0 .94-1.2 93.769 93.769 0 0 1-.82-2.39c-.18-.553-.323-1.373-.43-2.46a9.822 9.822 0 0 0-.92-3.25 24.84 24.84 0 0 1-1.26-3.05c-.58-1.82-1.59-3.55-3.03-5.19-.933-1.067-1.177-2.307-.73-3.72a1.238 1.238 0 0 0-.06-.91 9.834 9.834 0 0 1-.96-4.12.88.88 0 0 0-.43-.74c-1.167-.693-2.06-1.6-2.68-2.72-.32-.58-.567-1.777-.74-3.59-.273-2.773-1.47-5.127-3.59-7.06a1.45 1.45 0 0 0-.87-.35c-1.853-.12-3.373-.927-4.56-2.42-.507-.627-1.667-1.153-3.48-1.58-1.147-.273-1.96-.7-2.44-1.28-.627-.747-1.043-1.627-1.25-2.64-.047-.22-.16-.247-.34-.08-.247.233-.483-.107-.71-1.02a18.472 18.472 0 0 1-.51-5.96 1.17 1.17 0 0 0-.31-.86c-1.407-1.487-2.287-3.263-2.64-5.33a.915.915 0 0 0-.53-.69c-2.887-1.273-3.923-3.57-3.11-6.89a1.249 1.249 0 0 0-.1-.92c-2.213-4.12-6.02-6.717-11.42-7.79a4.095 4.095 0 0 1-1.95-.98c-.987-.893-2.203-1.49-3.65-1.79l-8.57-.6c-.297-.025-.549-.26-.62-.58-.293-1.44-.013-2.707.84-3.8a.32.32 0 0 1 .53.04c.753 1.367 1.107 2.343 1.06 2.93-.019.252.117.473.32.52l1.71.36c.32.065.646.037.94-.08 1.24-.507 2.41-.45 3.51.17.78.44 1.343.71 1.69.81.6.18 1.203.357 1.81.53a.4.4 0 0 0 .347-.054.333.333 0 0 0 .143-.296 1.526 1.526 0 0 0-.6-1.12c-.292-.235-.475-.516-.5-.77-.127-1.327.563-2.013 2.07-2.06.207-.007.417-.043.63-.11.687-.22.79 0 .31.66-.2.273-.14.363.18.27 1.213-.367 2.287-1.177 3.22-2.43 1.007-1.347 2.35-2.07 4.03-2.17 1.647-.1 3.36-.61 5.14-1.53 1.087-.567 2.107-.963 3.06-1.19 1.887-.447 3.303.077 4.25 1.57a.78.78 0 0 0 .75.36c1.14-.14 2.273-.13 3.4.03 1.413.207 2.527.227 3.34.06a31.758 31.758 0 0 0 4.61-1.29c.27-.096.513-.317.68-.62.633-1.14 1.487-1.36 2.56-.66a.78.78 0 0 0 .83.02c1.36-.84 2.803-1.08 4.33-.72 2.92.687 5.53 1.183 7.83 1.49.827.113 2.43.047 4.81-.2 2.313-.24 4.557.153 6.73 1.18.27.127.41.427.33.71-.313 1.12-.983 1.997-2.01 2.63-.573.347-1.017.393-1.33.14-.182-.14-.43-.122-.56.04-.507.627-1.35.793-2.53.5a.42.42 0 0 0-.52.39c-.053 1.607-.523 2.14-1.41 1.6a.669.669 0 0 0-.423-.1.395.395 0 0 0-.307.19c-.147.267-.13.537.05.81.2.305.252.632.13.83-.32.533-.757.66-1.31.38a.317.317 0 0 0-.29-.002.294.294 0 0 0-.16.232c-.113 1.047-.507 1.913-1.18 2.6a219.232 219.232 0 0 0-1.89 1.94c-1.627 2.74-.877 5.4 2.25 7.98a2.48 2.48 0 0 0 2.52.37c5.533-2.3 11.353-2.517 17.46-.65 1.167.36 2.607.513 4.32.46.28-.007.59.067.93.22l4.81 2.22Zm-42.05-.28c-1.5-.693-3.083-.773-4.75-.24a1.82 1.82 0 0 0-1.21 1.25l-2.11 7.82c-.096.352-.07.691.07.94l2.36 4.18c.707 1.247 1.093 2.337 1.16 3.27.213 2.833 2.143 4.383 5.79 4.65.72.053.843.353.37.9-.633.74-.263 1.163 1.11 1.27.336.032.67-.056.94-.25 1.427-1 2.08-2.323 1.96-3.97-.173-2.193-.253-3.377-.24-3.55.14-2.087.09-3.403-.15-3.95-.8-1.787-1.007-3.6-.62-5.44.26-1.247.317-2.127.17-2.64-.26-.96-.78-1.74-1.56-2.34-.807-.627-1.903-1.26-3.29-1.9Zm13.85 52.45a2.981 2.981 0 0 0-1.05-1.46c-1.64-1.22-2.307-.61-2 1.83.107.827.56 2.073 1.36 3.74.487 1.013.847 2.26 1.08 3.74a15.31 15.31 0 0 0 1.87 5.28c.153.274.453.42.74.36 1.34-.26 1.787-1.16 1.34-2.7a320.86 320.86 0 0 0-3.34-10.79Zm8.66 27.12a8.15 8.15 0 0 1-3.24-.69 60.895 60.895 0 0 0-8.72-3.06c-1.813-.487-3.73.027-5.75 1.54a11.904 11.904 0 0 0-2.96-1.06c-1.147-.247-2.127-.093-2.94.46-1.473 1.013-1.527 2.407-.16 4.18.183.235.454.422.78.54 3.027 1.08 5.577 2.837 7.65 5.27.162.188.285.494.35.87.12.68.547 1.01 1.28.99-2.82 1.933-2.653 2.323.5 1.17 1.067.28 2.247 1.293 3.54 3.04a1.94 1.94 0 0 1 .04 2.25c-.853 1.247-.31 1.663 1.63 1.25.88 1.7 2.08 1.887 3.6.56.68-.587 1.483-.76 2.41-.52.34.083.668.05.91-.09 1.647-.933 2.77-2.333 3.37-4.2.533-1.667 1.053-2.73 1.56-3.19l2.63-2.37c1.367-1.24 1.367-2.033 0-2.38-.993-.253-1.653-.867-1.98-1.84a26.53 26.53 0 0 0-3.4-6.82c-2.06-2.96-4.597-4.79-7.61-5.49-1.627-.373-2.193.237-1.7 1.83.58 1.873 1.587 3.413 3.02 4.62.32.267 1.227.663 2.72 1.19 1.007.36 1.83 1.01 2.47 1.95Z"/><path fill="#AD663E" d="m186.5 165.75.5.71c-1.487 1-3.057 1.097-4.71.29a6.078 6.078 0 0 0-2.75-.25c-2.513-.34-5.03-.38-7.55-.12a5.797 5.797 0 0 1-1.97-.11c-.64-.16-1.277-.333-1.91-.52-1.013-.293-1.983-.397-2.91-.31-2.987.3-5.95.757-8.89 1.37-.453.1-1.37.683-2.75 1.75a10.648 10.648 0 0 1-4.11 1.98c-1.827.44-3.297 1.377-4.41 2.81a2.27 2.27 0 0 1-.75.61c-1.9.98-2.297 2.683-1.19 5.11.58 1.267 1.543 1.723 2.89 1.37a18.64 18.64 0 0 1 5.71-.57c2.027.1 3.06.15 3.1.15 4.133.06 8.263.19 12.39.39.353.02.363.08.03.18-1.44.433-2.93.583-4.47.45-4.627.067-8.043.387-10.25.96-2.287.593-4.3.573-6.04-.06a2.305 2.305 0 0 0-.95-.14c-2.173.133-4.28-.763-6.32-2.69a1.594 1.594 0 0 1-.495-1.256c.03-.473.265-.91.645-1.194 2.2-1.627 4.277-3.223 6.23-4.79.033-.027 1.103-.997 3.21-2.91a19.863 19.863 0 0 1 2.73-2.09c.86-.553 1.717-1.283 2.57-2.19 2.187-2.34 4.88-3.3 8.08-2.88 1.473.193 2.88.253 4.22.18 1.46-.08 2.9.063 4.32.43.86.22 1.957.81 3.29 1.77 1.38.993 2.55 1.517 3.51 1.57 2.34.133 4.673.36 7 .68.25.032.541-.095.78-.34.293-.307.7-.42 1.22-.34Z"/><path fill="#925B37" d="M282.54 173.25v.25c-.06 1.467-.51 1.887-1.35 1.26-.473-.347-.853-.57-1.14-.67a198.945 198.945 0 0 0-8.04-2.64.933.933 0 0 0-.83.149c-.246.18-.403.468-.43.781l-.25 2.83c-.893-.14-1.683-.64-2.37-1.5a5.151 5.151 0 0 0-2.19-1.61c-2.587-1-2.753-1.777-.5-2.33 1.74-.42 2.107-1.2 1.1-2.34a1.209 1.209 0 0 0-.85-.4 47.382 47.382 0 0 0-8.75.29c-.527.067-1.107.043-1.74-.07-1.867-.327-2.343.183-1.43 1.53.12.184.408.363.79.49.54.187.79.66.75 1.42-.053 1.173.513 1.65 1.7 1.43.41-.076.759-.057.95.05l2.34 1.33c.38.213.673.347.88.4l10.03 2.6c.36.34.267.527-.28.56-2.853.187-6.46-.8-10.82-2.96a7.075 7.075 0 0 0-3.38-.74c-.907.027-2.28-.4-4.12-1.28-1.36-.653-2.483-.963-3.37-.93-1.78.073-2.11-.583-.99-1.97 1.7-2.12 3.78-3.05 6.24-2.79l1.53.15c2.307.107 4.613.157 6.92.15.286 0 .602-.112.9-.32.833-.58 1.803-.787 2.91-.62 1.433.22 2.783.043 4.05-.53.34-.153.653-.217.94-.19 1.727.167 3.17.8 4.33 1.9 1.487 1.407 2.443 2.27 2.87 2.59a16.359 16.359 0 0 1 3.6 3.73Z"/><path fill="#A26134" d="M179.54 166.5c-1.94-.073-2.377.033-1.31.32.313.087.313.163 0 .23l-3.48.74a62.544 62.544 0 0 0-2.5-.05c-.773 0-1.59-.11-2.45-.33a22.819 22.819 0 0 0-9.87-.32c-.282.051-.556.238-.76.52-.427.587-.987.947-1.68 1.08a1.493 1.493 0 0 0-.8.45l-4.01 4.3c-.581.625-1.5.857-2.37.6-1.247-.36-2.063.13-2.45 1.47-.09.325-.273.605-.52.8-2.107 1.667-1.817 2.543.87 2.63.933.033 1.66.083 2.18.15 1.28.173 2.567.31 3.86.41.267.02.87-.127 1.81-.44 1.18-.387 2.327-.453 3.44-.2 1.86.427 2.94.64 3.24.64 1.86 0 3.697-.237 5.51-.71 1.373-.42 2.75-.847 4.13-1.28.033-.007 1.003-.253 2.91-.74 1.96-.5 3.737-1.4 5.33-2.7.236-.191.555-.275.88-.23 1.307.2 2.737-.017 4.29-.65.31-.122.654-.13.97-.02.787.28 1.35.22 1.69-.18.179-.202.175-.554-.01-.87-1.26-2.173-3.01-3.693-5.25-4.56-.48-.187-.78-.457-.9-.81 1.653.807 3.223.71 4.71-.29 1.14.767 2.3 1.5 3.48 2.2.493.3 1.44.653 2.84 1.06 1.007.3 1.92.8 2.74 1.5.217.185.361.487.4.84.1.98.6 1.673 1.5 2.08.326.14.571.364.68.62 1.213 2.74.433 4.11-2.34 4.11-1.42 0-2.163.003-2.23.01a366.8 366.8 0 0 1-12.97.55c-1.867.047-4.23.357-7.09.93-3.7.747-7.453.973-11.26.68 1.54.133 3.03-.017 4.47-.45.333-.1.323-.16-.03-.18-4.127-.2-8.257-.33-12.39-.39-.04 0-1.073-.05-3.1-.15-1.98-.1-3.883.09-5.71.57-1.347.353-2.31-.103-2.89-1.37-1.107-2.427-.71-4.13 1.19-5.11a2.27 2.27 0 0 0 .75-.61c1.113-1.433 2.583-2.37 4.41-2.81a10.648 10.648 0 0 0 4.11-1.98c1.38-1.067 2.297-1.65 2.75-1.75a85.195 85.195 0 0 1 8.89-1.37c.927-.087 1.897.017 2.91.31.633.187 1.27.36 1.91.52a5.797 5.797 0 0 0 1.97.11c2.52-.26 5.037-.22 7.55.12Z"/><path fill="#784B30" d="M179.54 166.5a6.078 6.078 0 0 1 2.75.25c.12.353.42.623.9.81 2.24.867 3.99 2.387 5.25 4.56.185.316.189.668.01.87-.34.4-.903.46-1.69.18a1.395 1.395 0 0 0-.97.02c-1.553.633-2.983.85-4.29.65a1.147 1.147 0 0 0-.88.23c-1.593 1.3-3.37 2.2-5.33 2.7-1.907.487-2.877.733-2.91.74-1.38.433-2.757.86-4.13 1.28l-8.2-.28c-.301-.006-.613-.15-.87-.4l-1.59-1.5c-.182-.169-.279-.484-.26-.85.033-.587-.243-.923-.83-1.01-1.82-.267-2.173-.953-1.06-2.06 2.513-2.513 5.533-3.747 9.06-3.7.293 0 .61.105.91.3.587.373 1.227.65 1.92.83.693.173.707.34.04.5-.207.053-.21.107-.01.16 1.313.353 2.473.167 3.48-.56.853-.62 1.493-1.03 1.92-1.23.707-.333 1.37-.733 1.99-1.2l3.48-.74c.313-.067.313-.143 0-.23-1.067-.287-.63-.393 1.31-.32Z"/><path fill="#874F2D" d="M174.75 167.79c-.62.467-1.283.867-1.99 1.2-.427.2-1.067.61-1.92 1.23-1.007.727-2.167.913-3.48.56-.2-.053-.197-.107.01-.16.667-.16.653-.327-.04-.5a6.677 6.677 0 0 1-1.92-.83c-.3-.195-.617-.3-.91-.3-3.527-.047-6.547 1.187-9.06 3.7-1.113 1.107-.76 1.793 1.06 2.06.587.087.863.423.83 1.01-.019.366.078.681.26.85l1.59 1.5c.257.25.569.394.87.4l8.2.28a21.73 21.73 0 0 1-5.51.71c-.3 0-1.38-.213-3.24-.64-1.113-.253-2.26-.187-3.44.2-.94.313-1.543.46-1.81.44-1.293-.1-2.58-.237-3.86-.41-.52-.067-1.247-.117-2.18-.15-2.687-.087-2.977-.963-.87-2.63.247-.195.43-.475.52-.8.387-1.34 1.203-1.83 2.45-1.47.87.257 1.789.025 2.37-.6l4.01-4.3a1.49 1.49 0 0 1 .8-.45c.693-.133 1.253-.493 1.68-1.08.204-.282.478-.469.76-.52a22.819 22.819 0 0 1 9.87.32c.86.22 1.677.33 2.45.33.833 0 1.667.017 2.5.05Z"/><path fill="#784B30" d="M270.5 175.21c.567.253.803.683.71 1.29l-10.03-2.6c-.207-.053-.5-.187-.88-.4l-2.34-1.33c-.191-.107-.54-.126-.95-.05-1.187.22-1.753-.257-1.7-1.43.04-.76-.21-1.233-.75-1.42-.382-.127-.67-.306-.79-.49-.913-1.347-.437-1.857 1.43-1.53.633.113 1.213.137 1.74.07a47.382 47.382 0 0 1 8.75-.29c.339.02.646.164.85.4 1.007 1.14.64 1.92-1.1 2.34-2.253.553-2.087 1.33.5 2.33.873.34 1.603.877 2.19 1.61.687.86 1.477 1.36 2.37 1.5Z"/><path fill="#EAA165" d="M231.99 181.58c.78.6 1.3 1.38 1.56 2.34.147.513.09 1.393-.17 2.64-.387 1.84-.18 3.653.62 5.44.24.547.29 1.863.15 3.95-.013.173.067 1.357.24 3.55.12 1.647-.533 2.97-1.96 3.97-.27.194-.604.282-.94.25-1.373-.107-1.743-.53-1.11-1.27.473-.547.35-.847-.37-.9-3.647-.267-5.577-1.817-5.79-4.65-.067-.933-.453-2.023-1.16-3.27l-2.36-4.18c-.14-.249-.166-.588-.07-.94l2.11-7.82a1.82 1.82 0 0 1 1.21-1.25c1.667-.533 3.25-.453 4.75.24 1.387.64 2.483 1.273 3.29 1.9Z"/><path fill="#E5A46A" d="M270.75 179.96h4.75c4.207-.02 7.037 1.743 8.49 5.29.227.553.323 1.58.29 3.08-.02.92.15 1.823.51 2.71.13.304.147.637.05.94-.913 2.973-.653 5.867.78 8.68.32.627.443 1.267.37 1.92-.113.933-.137 1.553-.07 1.86a12.18 12.18 0 0 0 1.76 4.21c.284.433.405.95.34 1.46-.08.607-.03.877.15.81.161-.06.274-.297.28-.59l.09-3.33.75 7.75a5.03 5.03 0 0 0-.08 3.25l.29 2.79.21 3.21c-.24-.76-1.34-.857-3.3-.29-.913.267-1.777.633-2.59 1.1-1.473.84-2.183 2.133-2.13 3.88a31.344 31.344 0 0 1-1.26 9.7c-.193.66-.457 1.14-.79 1.44-.433.387-.96.63-1.58.73-1.14.193-1.847 1.403-2.12 3.63-.36 2.92-.25 6.283.33 10.09.047.34.013.673-.1 1-1.813 5.18-2.86 10.173-3.14 14.98-.019.3.101.605.33.84 1.827 1.833 1.66 3.443-.5 4.83-.3.195-.523.443-.64.71a5.67 5.67 0 0 0-.34 3.36c.064.33.018.66-.13.93a10.105 10.105 0 0 0-1.05 2.77c-.027.113-.293.937-.8 2.47-.36 1.073-.13 2.083.69 3.03.203.233.287.546.23.85-.233 1.267.013 2.397.74 3.39.76 1.027.903 2.063.43 3.11-.149.337-.198.671-.14.95.84 3.74 2.163 4.073 3.97 1 .24-.42.377-.407.41.04l.06.96-11.08 20.25c-.767-.06-1.19.25-1.27.93-.033.275-.161.57-.37.85l-2.03 2.72c-.16.207-.243.183-.25-.07a8.722 8.722 0 0 1 1.2-4.75c.2-.358.275-.701.2-.92l-.67-1.83c-.133-.374-.177-.701-.12-.9.667-2.193.45-4.31-.65-6.35-.128-.236-.42-.37-.74-.34-.693.053-.927-.29-.7-1.03.413-1.327.72-2.443.92-3.35.193-.88.073-1.99-.36-3.33-.78-2.42-1.033-5.227-.76-8.42.12-1.433-.52-1.99-1.92-1.67-.573.133-1.127-.077-1.66-.63l-1.18-1.2c-1.3-1.247-1.167-2.483.4-3.71 1.1-.867 2.38-1.467 3.84-1.8 1.513-.353 2.473-.763 2.88-1.23.693-.807 1.037-1.913 1.03-3.32-.007-.64.12-1.257.38-1.85.853-1.947 1.387-3.793 1.6-5.54.387-3.173.587-4.79.6-4.85.753-3.22 1.79-6.543 3.11-9.97.707-1.833.86-3.807.46-5.92-.453-2.387-.377-4.723.23-7.01.613-2.313 1.077-3.883 1.39-4.71.607-1.6 1.613-2.957 3.02-4.07.274-.21.448-.497.48-.79.16-1.4-.373-2.32-1.6-2.76-1.36-.48-2.063-.737-2.11-.77a11.51 11.51 0 0 1-3.33-2.95 1.763 1.763 0 0 1-.33-.9l-.58-6.69c-.113-1.247.323-2.22 1.31-2.92 2.527-1.813 5-2.2 7.42-1.16a.73.73 0 0 0 .79-.14c1.14-1.093 2.53-1.647 4.17-1.66a.53.53 0 0 0 .53-.49c.113-2.467-.637-4.633-2.25-6.5-.547-1.213-1.393-2.117-2.54-2.71-2.233-2.94-5.233-4.383-9-4.33a1.234 1.234 0 0 0-1-.25c-.933-.887-.89-1.843.13-2.87.15-.152.47-.259.87-.29l2.7-.23a.635.635 0 0 0 .58-.62l.04-4.46c.006-.387.081-.708.21-.9a15.867 15.867 0 0 0 2.29-5.58c.427-2.127-.25-3.517-2.03-4.17-.365-.138-.634-.352-.73-.58-.193-.507.12-.773.94-.8Z"/><path fill="#D0844F" d="M194.79 211c-.327-1.233-.82-2.17-1.48-2.81-2.967-2.88-6.653-4.693-11.06-5.44-4.36-.74-9.7-.523-16.02.65-1.953.36-3.877.96-5.77 1.8-1.84.813-3.66 1.677-5.46 2.59-1.94-2.793-4.167-3.527-6.68-2.2-.347.18-1.367 1.153-3.06 2.92-.987 1.027-2.45 2.27-4.39 3.73a1.186 1.186 0 0 0-.36.43c-.52 1.033-.29 1.917.69 2.65a1.2 1.2 0 0 1-.09 1.98c-.767.473-1.26 1.38-1.48 2.72-.093.553-.26.57-.5.05-.093-.213-.2-.227-.32-.04-.927 1.507-.863 2.913.19 4.22.34.42.523.84.55 1.26.013.304.189.553.43.61l8.71 1.96c.16.04.157.073-.01.1l-.95.15c-.813.127-.807.187.02.18l4.94-.05a.91.91 0 0 0 .75-.46 13.91 13.91 0 0 1 3.33-3.73 3.276 3.276 0 0 0 1.18-1.71c.105-.346.327-.599.58-.66.647-.153 1.147.057 1.5.63.467.773.72 1.18.76 1.22.9.9 1.72.793 2.46-.32.154-.238.204-.569.14-.92-.253-1.473.137-2.457 1.17-2.95 1.947-.92 3.823-.68 5.63.72.52.4.943.573 1.27.52.407-.067.717-.323.93-.77.152-.317.391-.541.65-.61 2.467-.647 4.737-.22 6.81 1.28.271.194.466.473.55.79a5.143 5.143 0 0 1-.09 2.82c-.547 1.807-.297 2.85.75 3.13a9.061 9.061 0 0 1 4.28 2.5c.207.214.503.358.84.41.72.12 1.193.487 1.42 1.1.1.28.087.813-.04 1.6-.187 1.16.113 1.93.9 2.31 1.433.7 1.46 1.45.08 2.25-2.313 1.327-3.633 2.917-3.96 4.77-.08.447.147 1.61.68 3.49.26.9.34 1.827.24 2.78-.06.633-.417 1.45-1.07 2.45-1.087 1.673-1.637 3.557-1.65 5.65-.02 2.667-.03 5.333-.03 8 0 1.08.573 2.27 1.72 3.57.233.267.383.55.45.85 1.22 5.927-.4 10.89-4.86 14.89-.66.593-1.26 1.77-1.8 3.53-.6 1.96-1.09 3.163-1.47 3.61-1.12 1.32-2.697 1.483-4.73.49-2.773-1.36-5.103-2.797-6.99-4.31-.266-.214-.586-.303-.87-.24-1.48.347-2.213 1.467-2.2 3.36.027 3.347-1.647 4.827-5.02 4.44-5.807-.653-9.577-3.477-11.31-8.47a1.7 1.7 0 0 0-2.1-1.06c-2.753.86-5.007.62-6.76-.72-.96-.74-1.847-.737-2.66.01a.471.471 0 0 1-.335.128.43.43 0 0 1-.315-.148c-.673-.793-1.257-1.27-1.75-1.43-2.067-.66-2.643-1.93-1.73-3.81.135-.288.15-.612.04-.9l-.89-2.32c-.103-.25-.103-.585 0-.94l1.17-4.22c.113-.427.047-.457-.2-.09a6.966 6.966 0 0 0-1.1 2.69c-.267 1.493-.843 1.67-1.73.53-.607-.787-.523-.87.25-.25.633.5 1.04.393 1.22-.32.773-3.007-.157-4.843-2.79-5.51a.987.987 0 0 0-.89.2c-.867.76-1.33 1.74-1.39 2.94-.82-2.207-.723-4.373.29-6.5.433-.9.42-3.15-.04-6.75 1.44-3.707 2.12-7.207 2.04-10.5-.027-1.24.27-2.21.89-2.91.247-.273.42-.54.52-.8.453-1.153 1.38-2.77 2.78-4.85.82-1.227.7-2.5-.36-3.82a1.122 1.122 0 0 1-.25-.87c.367-2.693.067-5.29-.9-7.79a2.078 2.078 0 0 1-.12-.96c.153-1.84-.263-4.11-1.25-6.81-1.76-4.84-1.28-9.82 1.44-14.94.52-.973 1.03-2.307 1.53-4 .52-1.753 1.24-2.777 2.16-3.07 1.12-.353 2.567-.2 4.34.46 1.167.433 2.18.323 3.04-.33l6.49-5c1.287-.987 1.6-2.257.94-3.81-.42-.98-.163-1.36.77-1.14.355.084.688.066.94-.05 1.28-.587 2.46-1.523 3.54-2.81 1.033-1.227 2.3-1.543 3.8-.95.3.118.63.145.95.08.953-.18 1.567-.04 1.84.42.47.801 1.437 1.222 2.43 1.06l12.75-2.11c1.927-.32 4.117-.13 6.57.57 1.407.4 3.42.68 6.04.84 1.553.087 2.86.493 3.92 1.22 3.46 2.36 6.33 5.463 8.61 9.31a3.41 3.41 0 0 1 .39 2.49c-.567 2.5-1.487 4.263-2.76 5.29a1.94 1.94 0 0 0-.71 1.73c.207 1.86.44 3.397.7 4.61.187.873.247 1.507.18 1.9-.2 1.2-1.007 1.38-2.42.54Zm-36.23-9.69c.94-.967 1.113-1.863.52-2.69-.167-.23-.491-.321-.81-.23-.927.267-1.863.483-2.81.65-1.64.28-2.587 1.163-2.84 2.65a.76.76 0 0 0 .35.78c1.867 1.153 3.73.767 5.59-1.16Zm21.01 70.73c-2.227 2.22-3.637 4.88-4.23 7.98-.333 1.713.123 3.29 1.37 4.73a.45.45 0 0 0 .68 0c1.407-1.573 2.5-3.253 3.28-5.04a78.036 78.036 0 0 1 2.85-5.87c.773-1.433.37-2.89-1.21-4.37a1.01 1.01 0 0 0-1.25-.09c-.593.4-.953 1.003-1.08 1.81a1.525 1.525 0 0 1-.41.85Z"/><path fill="#673D23" d="M295.26 189.38c.827.847.687 1.047-.42.6-.29-.113-.502-.332-.57-.59-.1-.38.08-.483.54-.31.16.06.31.16.45.3Z"/><path fill="#C9834D" d="M261 200.21c-4.553-.573-8.803.203-12.75 2.33-1.747.72-3.15 1.873-4.21 3.46a4.156 4.156 0 0 0-1.54-1.5c-1.207-.687-1.893-1.5-2.06-2.44-.433-2.4-.017-4.483 1.25-6.25.587-.807 1.35-1.907 2.29-3.3 1.207-1.787 2.94-2.577 5.2-2.37.547.053 1.59.387 3.13 1a14.85 14.85 0 0 0 3.23.87c.667.101 1.24.502 1.54 1.08l2.2 4.21c.13.245.168.574.11.93-.193 1.233.343 1.893 1.61 1.98Z"/><path fill="#874F2D" d="M92.71 197.5a24.67 24.67 0 0 0 1.22 6.81 20.431 20.431 0 0 1 1.03 6.69h-.17c-.387-1.173-.78-2.34-1.18-3.5-.333-.953-.573-2.15-.72-3.59a21.013 21.013 0 0 0-1.62-6.14c-.142-.32-.082-.663.14-.8.393-.247.827-.07 1.3.53Z"/><path fill="#C57B4B" d="M158.56 201.31c-1.86 1.927-3.723 2.313-5.59 1.16a.76.76 0 0 1-.35-.78c.253-1.487 1.2-2.37 2.84-2.65a27.221 27.221 0 0 0 2.81-.65c.319-.091.643 0 .81.23.593.827.42 1.723-.52 2.69Z"/><path fill="#392416" d="m261 200.21 2.75.08-1.46 5.96-2.29 2.29c-2.613 1.147-5.28 1.203-8 .17-2.467-1.267-3.717-3.323-3.75-6.17 3.947-2.127 8.197-2.903 12.75-2.33Zm-.92 4.24a.568.568 0 0 0 .37.28.42.42 0 0 0 .373-.112c.112-.1.19-.252.217-.418.24-1.567-.44-2.247-2.04-2.04a1.23 1.23 0 0 1-.88-.25c-.547-.407-1.11-.467-1.69-.18-.407.2-.423.393-.05.58l3.16 1.64c.223.118.409.29.54.5Z"/><path fill="#C57B4B" d="m263.75 200.29 2 .17c.38-.06.713.023 1 .25-.32.473-.32.973 0 1.5-1.16.593-1.93 1.587-2.31 2.98-.28 1.027-.997 1.38-2.15 1.06l1.46-5.96Z"/><path fill="#673D23" d="M266.75 200.71c3.767-.053 6.767 1.39 9 4.33 1.067 1.64.88 2.523-.56 2.65-1.06.093-2.457-.483-4.19-1.73l-4.25-3.75c-.32-.527-.32-1.027 0-1.5Z"/><path fill="#925B37" d="m259.54 203.95-3.16-1.64c-.373-.187-.357-.38.05-.58.58-.287 1.143-.227 1.69.18.269.199.585.288.88.25 1.6-.207 2.28.473 2.04 2.04a.716.716 0 0 1-.217.418.42.42 0 0 1-.373.112.568.568 0 0 1-.37-.28 1.416 1.416 0 0 0-.54-.5Z"/><path fill="#EDB379" d="m266.75 202.21 4.25 3.75c-2.42 2.013-5.587 3.11-9.5 3.29-.987.047-1.487-.19-1.5-.71l2.29-2.29c1.153.32 1.87-.033 2.15-1.06.38-1.393 1.15-2.387 2.31-2.98Z"/><path fill="#392416" d="m194.79 211-.33 1-.69-.37a.88.88 0 0 1-.46-.69c-.06-.753-.363-1.35-.91-1.79a432.72 432.72 0 0 1-1.48-1.16c-1.553-1.56-3.43-2.557-5.63-2.99-.893-.933-1.97-1.48-3.23-1.64a.353.353 0 0 0-.314.112.42.42 0 0 0-.106.338c.447 3.207-.683 5.7-3.39 7.48-3.073 1.827-6.073 1.743-9-.25-1.793-1.007-2.667-2.54-2.62-4.6.047-1.887-.58-2.187-1.88-.9-1.633.14-2.947.73-3.94 1.77-1.853 1.96-4.033 2.66-6.54 2.1-.447-.093-.62-.383-.52-.87l1.25-.75c1.8-.913 3.62-1.777 5.46-2.59a25.665 25.665 0 0 1 5.77-1.8c6.32-1.173 11.66-1.39 16.02-.65 4.407.747 8.093 2.56 11.06 5.44.66.64 1.153 1.577 1.48 2.81Zm-16.28-6.32c-.84-.14-1.667-.337-2.48-.59-.2-.067-.39-.09-.57-.07-.86.093-.883.347-.07.76 1.327.673 2.447 1.303 3.36 1.89a.68.68 0 0 0 1-.31c.693-1.693.59-2.317-.31-1.87-.33.168-.658.235-.93.19Z"/><path fill="#874F2D" d="M248.25 202.54c.033 2.847 1.283 4.903 3.75 6.17a20.637 20.637 0 0 1-9.21.79l-.08-.5 1.33-3c1.06-1.587 2.463-2.74 4.21-3.46Z"/><path fill="#EDB379" d="m185.29 205 .54 3.96c.043.312-.074.605-.3.75-2.2 1.433-4.627 1.96-7.28 1.58 2.707-1.78 3.837-4.273 3.39-7.48a.42.42 0 0 1 .106-.338.353.353 0 0 1 .314-.112c1.26.16 2.337.707 3.23 1.64Z"/><path fill="#925B37" d="M179.44 204.49c.9-.447 1.003.177.31 1.87a.68.68 0 0 1-1 .31c-.913-.587-2.033-1.217-3.36-1.89-.813-.413-.79-.667.07-.76.18-.02.37.003.57.07.813.253 1.64.45 2.48.59.272.045.6-.022.93-.19Z"/><path fill="#C57B4B" d="M169.25 211.04c.06.333.057.643-.01.93a.478.478 0 0 1-.244.305.58.58 0 0 1-.416.045 13.078 13.078 0 0 1-5.58-3.11c-.713-.98-.527-1.78.56-2.4.227-.127.623-.55 1.19-1.27 1.3-1.287 1.927-.987 1.88.9-.047 2.06.827 3.593 2.62 4.6Z"/><path fill="#AD663E" d="M185.29 205c2.2.433 4.077 1.43 5.63 2.99.007.007.5.393 1.48 1.16.547.44.85 1.037.91 1.79a.88.88 0 0 0 .46.69l.69.37c-.227.8-.697 1.233-1.41 1.3-.98.093-1.507.153-1.58.18a97.826 97.826 0 0 1-16.98 3.22c-.28.027-.583.133-.91.32-.847.487-1.787.627-2.82.42a48.44 48.44 0 0 0-8.26-.93c-.292-.006-.605.1-.89.3a4.084 4.084 0 0 1-2.3.77c-.337.006-.65.112-.89.3-2.913 2.28-6.007 2.53-9.28.75-.033-.02-.24-.163-.62-.43-.773-.533-1.893-.707-3.36-.52a1.37 1.37 0 0 1-1.51-1.64c1.013-4.707 4.213-7.207 9.6-7.5-1.68 1.967-1.523 2.83.47 2.59.173-.02.697-.047 1.57-.08.607-.027 1.117-.207 1.53-.54a2.2 2.2 0 0 1 2.08-.38c1.827.613 3.193.307 4.1-.92a13.078 13.078 0 0 0 5.58 3.11.58.58 0 0 0 .416-.045.478.478 0 0 0 .244-.305c.067-.287.07-.597.01-.93 2.927 1.993 5.927 2.077 9 .25 2.653.38 5.08-.147 7.28-1.58.226-.145.343-.438.3-.75l-.54-3.96Zm90.46.04c1.147.593 1.993 1.497 2.54 2.71-.653 1.073-1.647 1.467-2.98 1.18a3.912 3.912 0 0 0-2.6.32l-2.46 2.05c-.308.257-.598.421-.81.46-1.087.173-2.12.483-3.1.93-1.313.593-2.303.937-2.97 1.03-3.68.527-7.22-.047-10.62-1.72-1.44-.707-4.09-1.27-7.95-1.69-.187-.02-.55-.003-1.09.05-.653.067-.96-.22-.92-.86 3.127.433 6.197.17 9.21-.79 2.72 1.033 5.387.977 8-.17.013.52.513.757 1.5.71 3.913-.18 7.08-1.277 9.5-3.29 1.733 1.247 3.13 1.823 4.19 1.73 1.44-.127 1.627-1.01.56-2.65Z"/><path fill="#874F2D" d="M164.75 205.54c-.567.72-.963 1.143-1.19 1.27-1.087.62-1.273 1.42-.56 2.4-.907 1.227-2.273 1.533-4.1.92a2.2 2.2 0 0 0-2.08.38c-.413.333-.923.513-1.53.54-.873.033-1.397.06-1.57.08-1.993.24-2.15-.623-.47-2.59a.801.801 0 0 1 .5 0c-.1.487.073.777.52.87 2.507.56 4.687-.14 6.54-2.1.993-1.04 2.307-1.63 3.94-1.77Z"/><path fill="#C57B4B" d="m242.71 209 .08.5c-.04.64.267.927.92.86.54-.053.903-.07 1.09-.05 3.86.42 6.51.983 7.95 1.69 3.4 1.673 6.94 2.247 10.62 1.72.667-.093 1.657-.437 2.97-1.03.98-.447 2.013-.757 3.1-.93.212-.039.502-.203.81-.46l2.46-2.05c-2.167 2.56-4.79 4.427-7.87 5.6-2.02.767-3.397 1.507-4.13 2.22-1.12 1.093-2.063 2.4-2.83 3.92-.527 1.033-.517 2.063.03 3.09.933 1.767.62 2.94-.94 3.52a1.014 1.014 0 0 1-.9-.12c-2.107-1.347-3.777-2.86-5.01-4.54-1.213-1.667-2.383-3.097-3.51-4.29-1.36-1.447-2.303-2.607-2.83-3.48a42.334 42.334 0 0 1-2.11-4c-.333-.727-.3-1.45.1-2.17Z"/><path fill="#B76437" d="M209.29 253.25c.513-1.8.063-3.113-1.35-3.94-3.673-2.153-7.663-2.637-11.97-1.45-.267.073-.533.247-.8.52-.587.593-.81.287-.67-.92l.41-2.16c.057-.28.269-.546.58-.73 2.253-1.333 3.79-3.387 4.61-6.16a2.73 2.73 0 0 0-.47-2.46c-.527-.673-.88-1.493-1.06-2.46-.05-.278.048-.594.27-.86 1.38-1.653 1.323-3.677-.17-6.07a.895.895 0 0 1 .13-1.11c1.267-1.267 2.047-2.797 2.34-4.59.04-.253-.077-1.81-.35-4.67-.173-1.753.04-3.597.64-5.53a.905.905 0 0 1 .468-.543.925.925 0 0 1 .722-.037c2.773 1.02 4.367 2.553 4.78 4.6.153.76.317 1.277.49 1.55.213.333.46.643.74.93a.675.675 0 0 1 .12.78c-.507.973-.603 1.95-.29 2.93.493 1.54.743 2.327.75 2.36a25.635 25.635 0 0 0 2.73 7.58c.158.278 1.077.95 2.31 1.69 2.793 1.673 2.94 3.57.44 5.69-1.687 1.427-2.603 2.343-2.75 2.75-.493 1.327-1.313 1.943-2.46 1.85-1.413-.113-1.64.35-.68 1.39 1.233 1.327 1.823 2.887 1.77 4.68 0 .087.027.677.08 1.77.047 1.047-.407 1.92-1.36 2.62ZM94.79 211h.17l.2 3.76c.02.296.173.603.43.86l2.82 2.79c.347.354.55.796.57 1.24.08 1.967.003 2.757-.23 2.37-.16-.267-.277-.257-.35.03-.22.907.147 1.39 1.1 1.45.342.025.635.168.8.39.86 1.133 1.343 2.087 1.45 2.86.147 1.08.88 1.483 2.2 1.21a1.27 1.27 0 0 1 1.53 1.3l-.21 4.46c-.04.94.197 1.017.71.23.98-1.52 1.907-3.01 2.78-4.47.14-.227.263-.287.37-.18.08.082.11.249.08.44a10.15 10.15 0 0 0 .83 5.76 52.332 52.332 0 0 0 1.84 3.97c.18.353.307.773.38 1.26.2 1.387.68 1.61 1.44.67.159-.19.232-.516.2-.89-.027-.34.073-.557.3-.65.108-.044.233-.02.342.068a.652.652 0 0 1 .218.382l1.38 7.7c.025.124.106.23.218.285a.384.384 0 0 0 .352-.005c.547-.307.99-.737 1.33-1.29 2.253.327 2.437 1.8.55 4.42-.327.453-.55.403-.67-.15-.3-1.44-1.063-1.47-2.29-.09a.721.721 0 0 1-.79.21c-2.26-.86-4.02-2.093-5.28-3.7-.613-.793-1.257-.963-1.93-.51-.244.165-.368.484-.32.82.56 3.807 2.893 5.577 7 5.31.805-.048 1.45.051 1.63.25 1.94 2.307 3.223 4.953 3.85 7.94-.38 2.04-1.643 2.777-3.79 2.21-.347-1.673-.037-3.12.93-4.34.194-.249.233-.57.1-.82-.92-1.767-2.43-2.853-4.53-3.26l-5.04-1.83c-.28-.107-.494-.37-.57-.7a84 84 0 0 0-1.3-5.1c-.407-1.387-.62-2.687-.64-3.9-.02-1.333-.01-2.667.03-4a1.24 1.24 0 0 0-.31-.89c-2.107-2.333-3.007-1.54-2.7 2.38a37.94 37.94 0 0 0 1.83 9.09c.493 1.493 1.207 2.78 2.14 3.86 1.22 1.42 2.387 2.373 3.5 2.86 1.18.52 1.53 1.177 1.05 1.97-.144.245-.47.324-.74.18a22.189 22.189 0 0 1-3.97-2.8c-1.153-1.033-2.02-2.36-2.6-3.98a42.668 42.668 0 0 1-2.36-10.96 14.243 14.243 0 0 0-1.16-4.6 50.724 50.724 0 0 1-3.38-10.57c-.053-.26-.193-.553-.42-.88-.66-.96-.697-2.183-.11-3.67.933-2.373.363-3.29-1.71-2.75-.867-1.24-.88-2.427-.04-3.56.227-.312.364-.618.39-.87l.4-3.57Z"/><path fill="#925B37" d="m289.29 214.75 2.4 3.88c.18.29.251.617.2.92-.12.713-.45.497-.99-.65-.367-.78-.93-1.08-1.69-.9a5.03 5.03 0 0 1 .08-3.25Z"/><path fill="#CE794B" d="M112.5 255.29c-.513 1.813.057 3.533 1.71 5.16a2.07 2.07 0 0 1 .48 2.21c-.493 1.293-.057 1.643 1.31 1.05 2.147.567 3.41-.17 3.79-2.21 1.02.893 1.387 1.983 1.1 3.27-.067.28-.057.597.03.95l1.29 5.28c-1.28-.227-2.24-.803-2.88-1.73a1.37 1.37 0 0 0-1.42-.56c-3.873.88-6.473-.35-7.8-3.69a1.83 1.83 0 0 0-.56-.76c-1.68-1.32-2.78-2.49-3.3-3.51-.467-.92-.98-1.17-1.54-.75-2.6-5.747-4.087-9.497-4.46-11.25-.993-4.64-1.973-7.743-2.94-9.31-1.313-2.133-2.5-4.947-3.56-8.44-.607-2-.773-3.75-.5-5.25a53.4 53.4 0 0 0 .79-6.75c2.073-.54 2.643.377 1.71 2.75-.587 1.487-.55 2.71.11 3.67.227.327.367.62.42.88a50.724 50.724 0 0 0 3.38 10.57 14.243 14.243 0 0 1 1.16 4.6 42.668 42.668 0 0 0 2.36 10.96c.58 1.62 1.447 2.947 2.6 3.98a22.189 22.189 0 0 0 3.97 2.8c.27.144.596.065.74-.18.48-.793.13-1.45-1.05-1.97-1.113-.487-2.28-1.44-3.5-2.86-.933-1.08-1.647-2.367-2.14-3.86a37.934 37.934 0 0 1-1.83-9.09c-.307-3.92.593-4.713 2.7-2.38.212.23.323.55.31.89a88.908 88.908 0 0 0-.03 4c.02 1.213.233 2.513.64 3.9a84 84 0 0 1 1.3 5.1c.076.33.29.593.57.7l5.04 1.83Z"/><path fill="#EDB379" d="M289.71 224a138.517 138.517 0 0 1-2.05 27.73c-1.2 6.847-2.443 13.683-3.73 20.51-1.587 8.413-3.93 18.23-5.966 23.88-.27.747-.99 2.225-1.674 3.38l-.06-.96c-.033-.447-.17-.46-.41-.04-1.807 3.073-3.13 2.74-3.97-1-.058-.279-.009-.613.14-.95.473-1.047.33-2.083-.43-3.11-.727-.993-.973-2.123-.74-3.39a1.01 1.01 0 0 0-.23-.85c-.82-.947-1.05-1.957-.69-3.03.507-1.533.773-2.357.8-2.47.213-.973.563-1.897 1.05-2.77.148-.27.194-.6.13-.93a5.67 5.67 0 0 1 .34-3.36c.117-.267.34-.515.64-.71 2.16-1.387 2.327-2.997.5-4.83a1.115 1.115 0 0 1-.33-.84c.28-4.807 1.327-9.8 3.14-14.98.113-.327.147-.66.1-1-.58-3.807-.69-7.17-.33-10.09.273-2.227.98-3.437 2.12-3.63.62-.1 1.147-.343 1.58-.73.333-.3.597-.78.79-1.44a31.344 31.344 0 0 0 1.26-9.7c-.053-1.747.657-3.04 2.13-3.88a11.868 11.868 0 0 1 2.59-1.1c1.96-.567 3.06-.47 3.3.29Zm-9.02 43.87c-.4.827-.287 1.507.34 2.04.098.08.229.106.354.073a.443.443 0 0 0 .286-.243c.673-1.453.567-2.877-.32-4.27-.193-.293-.297-.263-.31.09l-.08 1.38c-.013.273-.103.583-.27.93Z"/><path fill="#EAA165" d="M242.55 232.13a320.86 320.86 0 0 1 3.34 10.79c.447 1.54 0 2.44-1.34 2.7a.697.697 0 0 1-.74-.36 15.31 15.31 0 0 1-1.87-5.28c-.233-1.48-.593-2.727-1.08-3.74-.8-1.667-1.253-2.913-1.36-3.74-.307-2.44.36-3.05 2-1.83.495.371.862.88 1.05 1.46Z"/><path fill="#874F2D" d="m110.04 235.5 3.6 2.44c.207.142.528.23.91.25 1.573.073 2.307.927 2.2 2.56-.087 1.3.317 1.837 1.21 1.61.268-.066.484-.328.55-.67l.7-3.69a6.112 6.112 0 0 0 .56 3.29c.527 1.133.32 2.113-.62 2.94-.873.773-1.243 1.697-1.11 2.77-.34.553-.783.983-1.33 1.29a.384.384 0 0 1-.352.005.406.406 0 0 1-.218-.285l-1.38-7.7a.652.652 0 0 0-.218-.382c-.109-.087-.234-.112-.342-.068-.227.093-.327.31-.3.65.032.374-.041.7-.2.89-.76.94-1.24.717-1.44-.67a4.12 4.12 0 0 0-.38-1.26 52.332 52.332 0 0 1-1.84-3.97Z"/><path fill="#B05C35" d="M209.29 253.25c.433 2.267-.393 3.163-2.48 2.69-4.333-.987-8.007-.057-11.02 2.79-.807.76-1.39 1.89-1.75 3.39a29.213 29.213 0 0 1-1.33 4.13c-.66-4.4.647-8.11 3.92-11.13 1.173-1.08 2.4-2.1 3.68-3.06 2.153-1.607 2.05-2.46-.31-2.56-1.993-.087-3.39.267-4.19 1.06a28.716 28.716 0 0 1-3.92 3.28c-.733.513-1.3 1.133-1.7 1.86-.413.753-.833 1.507-1.26 2.26-.933 1.64-1.167 3.233-.7 4.78.16.527.837 1.873 2.03 4.04a26.658 26.658 0 0 0 5.49 6.93l-6-4.17c-2.033-1.42-3.257-3.233-3.67-5.44-.38-2.033-.323-4.097.17-6.19.473-2.033 1.577-3.983 3.31-5.85 2.28-2.447 3.927-3.98 4.94-4.6-.14 1.207.083 1.513.67.92.267-.273.533-.447.8-.52 4.307-1.187 8.297-.703 11.97 1.45 1.413.827 1.863 2.14 1.35 3.94Z"/><path fill="#974A32" d="M192.71 266.25c1.2 3.2 3.38 5.463 6.54 6.79.88.7 1.693 1.123 2.44 1.27 1.527.313 1.88.773 1.06 1.38-.307.227-.673.323-1.1.29a6.603 6.603 0 0 1-3.44-1.25 4.16 4.16 0 0 0-1.18-.61 31.618 31.618 0 0 1-1.28-.41 26.658 26.658 0 0 1-5.49-6.93c-1.193-2.167-1.87-3.513-2.03-4.04-.467-1.547-.233-3.14.7-4.78.427-.753.847-1.507 1.26-2.26.4-.727.967-1.347 1.7-1.86a28.716 28.716 0 0 0 3.92-3.28c.8-.793 2.197-1.147 4.19-1.06 2.36.1 2.463.953.31 2.56-1.28.96-2.507 1.98-3.68 3.06-3.273 3.02-4.58 6.73-3.92 11.13Z"/><path fill="#CE794B" d="m243.21 276 5.49-4.83c.26-.233.54-.393.84-.48 1.48-.467 2.447-1.43 2.9-2.89.093-.313.26-.583.5-.81.593-.553 1.177-1.32 1.75-2.3 1.507-2.587.79-3.317-2.15-2.19.027-1.24-.417-2.323-1.33-3.25-.64-.94-1.463-1.59-2.47-1.95-1.493-.527-2.4-.923-2.72-1.19-1.433-1.207-2.44-2.747-3.02-4.62-.493-1.593.073-2.203 1.7-1.83 3.013.7 5.55 2.53 7.61 5.49a26.53 26.53 0 0 1 3.4 6.82c.327.973.987 1.587 1.98 1.84 1.367.347 1.367 1.14 0 2.38l-2.63 2.37c-.507.46-1.027 1.523-1.56 3.19-.6 1.867-1.723 3.267-3.37 4.2-.242.14-.57.173-.91.09-.927-.24-1.73-.067-2.41.52-1.52 1.327-2.72 1.14-3.6-.56Z"/><path fill="#DA8E58" d="M112.5 255.29c2.1.407 3.61 1.493 4.53 3.26.133.25.094.571-.1.82-.967 1.22-1.277 2.667-.93 4.34-1.367.593-1.803.243-1.31-1.05a2.07 2.07 0 0 0-.48-2.21c-1.653-1.627-2.223-3.347-1.71-5.16Z"/><path fill="#EDB379" d="M251.21 259.25c.913.927 1.357 2.01 1.33 3.25-1.26 3.647-3.507 6.47-6.74 8.47-.28.173-.537.26-.77.26-.547-.007-.727-.29-.54-.85.087-.26.273-.517.56-.77a49.887 49.887 0 0 1 3.22-2.6c1.46-1.08 1.653-2.217.58-3.41a.86.86 0 0 0-.83-.26 7.07 7.07 0 0 0-3.02 1.45 11.37 11.37 0 0 0-5.5 2.25c-1.18.067-1.743-.467-1.69-1.6.167-3.16-1.19-4.507-4.07-4.04-.327.057-.646-.028-.86-.23-1.613-1.56-1.407-2.937.62-4.13 2.02-1.513 3.937-2.027 5.75-1.54 2.987.8 5.893 1.82 8.72 3.06a8.15 8.15 0 0 0 3.24.69Z"/><path fill="#EAA165" d="M233.5 257.04c-2.027 1.193-2.233 2.57-.62 4.13.214.202.533.287.86.23 2.88-.467 4.237.88 4.07 4.04-.053 1.133.51 1.667 1.69 1.6l-2 1.25c-.733.02-1.16-.31-1.28-.99-.065-.376-.188-.682-.35-.87-2.073-2.433-4.623-4.19-7.65-5.27a1.718 1.718 0 0 1-.78-.54c-1.367-1.773-1.313-3.167.16-4.18.813-.553 1.793-.707 2.94-.46a11.89 11.89 0 0 1 2.96 1.06Z"/><path fill="#D17E51" d="m220.79 259 4.44 2.36c.293.153.53.363.71.63.613.92 1.47 1.483 2.57 1.69.354.07.649.227.83.44l3.83 4.58c.907 1.087.65 1.813-.77 2.18-.947.247-1.62.69-2.02 1.33-.193.313-.437 1.017-.73 2.11-.82 3.033.547 4.363 4.1 3.99.312-.032.627.07.87.28a9.952 9.952 0 0 0 3.6 2.08c.275.092.541.279.77.54.767.887 1.623.92 2.57.1.92-.793 1.69-.88 2.31-.26.172.166.145.476-.06.7l-2.09 2.28c-.26.28-.51.46-.75.54-1.74.58-2.1 1.61-1.08 3.09.161.232.438.417.78.52 1.507.453 2.463 1.473 2.87 3.06.427 1.667-.087 2.657-1.54 2.97 1.447-.993 1.65-1.873.61-2.64-.967-.707-1.517-1.13-1.65-1.27a44.755 44.755 0 0 0-8.72-6.86.91.91 0 0 1-.43-.76c-.087-2.507-1.38-4.37-3.88-5.59a.92.92 0 0 0-1.19.36c-.68 1.113-1.29 1.757-1.83 1.93a2.07 2.07 0 0 0-1.45 2.11c.093 1.233-.233 2.02-.98 2.36-.264.126-.608.108-.93-.05-1.633-.767-2.723-1.98-3.27-3.64-.313-.96-.627-1.68-.94-2.16a62.783 62.783 0 0 1-1.26-2c-.176-.286-.184-.627-.02-.87.347-.52.8-.9 1.36-1.14.42-.18.97-.173 1.65.02 1.673.473 3.047.45 4.12-.07a56.262 56.262 0 0 1 7.02-2.85.606.606 0 0 0 .43-.65c-.147-1.12-.61-1.933-1.39-2.44-1.667-1.087-2.867-2.23-3.6-3.43a6.582 6.582 0 0 0-2.72-2.49c-1.587-.78-2.3-1.807-2.14-3.08Z"/><path fill="#DA8E58" d="M122.21 271c.4.82.43 1.61.09 2.37-.13.3-.172.62-.12.92.207 1.233-.437 1.873-1.93 1.92l-.21.04c-.147-.713-.743-1.297-1.79-1.75-6.387-2.747-10.9-7.58-13.54-14.5.56-.42 1.073-.17 1.54.75.52 1.02 1.62 2.19 3.3 3.51.242.19.436.452.56.76 1.327 3.34 3.927 4.57 7.8 3.69.539-.12 1.1.1 1.42.56.64.927 1.6 1.503 2.88 1.73Z"/><path fill="#C27542" d="M243.21 276c-1.94.413-2.483-.003-1.63-1.25a1.94 1.94 0 0 0-.04-2.25c-1.293-1.747-2.473-2.76-3.54-3.04 1.02-1.073 2.36-1.74 4.02-2a6.073 6.073 0 0 0 1.32-.37c1.9-.793 2.453-1.56 1.66-2.3a7.07 7.07 0 0 1 3.02-1.45.86.86 0 0 1 .83.26c1.073 1.193.88 2.33-.58 3.41a49.887 49.887 0 0 0-3.22 2.6c-.287.253-.473.51-.56.77-.187.56-.007.843.54.85.233 0 .49-.087.77-.26 3.233-2 5.48-4.823 6.74-8.47 2.94-1.127 3.657-.397 2.15 2.19-.573.98-1.157 1.747-1.75 2.3-.24.227-.407.497-.5.81-.453 1.46-1.42 2.423-2.9 2.89-.3.087-.58.247-.84.48l-5.49 4.83Z"/><path fill="#7C3B1D" d="M245 264.79c.793.74.24 1.507-1.66 2.3a6.073 6.073 0 0 1-1.32.37c-1.66.26-3 .927-4.02 2-3.153 1.153-3.32.763-.5-1.17l2-1.25a11.371 11.371 0 0 1 5.5-2.25Z"/><path fill="#CC8553" d="m280.96 266.94.08-1.38c.013-.353.117-.383.31-.09.887 1.393.993 2.817.32 4.27a.443.443 0 0 1-.286.243.399.399 0 0 1-.354-.073c-.627-.533-.74-1.213-.34-2.04.167-.347.257-.657.27-.93Z"/><path fill="#291A0F" d="M216.29 269.75c-2.027.307-3.77.203-5.23-.31-2.833-1-5.437-1.41-7.81-1.23.507-1.107 1.36-1.657 2.56-1.65 3.613.02 7.107 1.083 10.48 3.19Z"/><path fill="#974A32" d="m216.29 269.75 6.48 2.1c.332.108.563.367.58.65.033.507-.243.71-.83.61-1.747-.287-3.67-1.073-5.77-2.36-1.387-.853-2.77-.81-4.15.13-.289.2-.615.285-.91.24a24.86 24.86 0 0 1-8.44-2.91c2.373-.18 4.977.23 7.81 1.23 1.46.513 3.203.617 5.23.31Z"/><path fill="#DA8E58" d="M179.98 271.19c.127-.807.487-1.41 1.08-1.81a1.01 1.01 0 0 1 1.25.09c1.58 1.48 1.983 2.937 1.21 4.37a78.036 78.036 0 0 0-2.85 5.87c-.78 1.787-1.873 3.467-3.28 5.04a.45.45 0 0 1-.68 0c-1.247-1.44-1.703-3.017-1.37-4.73.593-3.1 2.003-5.76 4.23-7.98.214-.214.358-.513.41-.85Z"/><path fill="#BA643B" d="m189.75 269.54 6 4.17c.427.147.853.283 1.28.41.387.12.78.323 1.18.61a6.603 6.603 0 0 0 3.44 1.25c.427.033.793-.063 1.1-.29.82-.607.467-1.067-1.06-1.38-.747-.147-1.56-.57-2.44-1.27a29.169 29.169 0 0 1 7.88.63c.14.027 1.067.147 2.78.36 2.107.26 2.85 1.59 2.23 3.99a1.49 1.49 0 0 0 .05.94 18.546 18.546 0 0 0 5.35 7.19c.04.033.647.643 1.82 1.83 1.107 1.113 2.24.943 3.4-.51.1-.127.353-.33.76-.61.14-.1.26-.227.36-.38.08-.127.113-.29.1-.49-.1-1.6.05-3.167.45-4.7.08-.302.355-.5.64-.46.987.133 1.65.837 1.99 2.11.58 2.127 1.94 3.47 4.08 4.03 1.887.493 2.09 1.337.61 2.53-1.027.827-2.297.347-3.81-1.44-1.4-1.647-2.697-1.257-3.89 1.17-.176.359-.173.781.01 1.14 1.34 2.58 3.367 3.217 6.08 1.91.367-.18.537-.1.51.24-.013.1-.04.207-.08.32a.78.78 0 0 1-.2.28c-1.593 1.353-3.357 1.627-5.29.82a3.006 3.006 0 0 0-1.41-.22c-1.98.167-3.8.263-5.46.29-1.4.027-2.997.29-4.79.79-1.94.547-4.107.883-6.5 1.01a.926.926 0 0 1-.747-.326.904.904 0 0 1-.193-.784c.833-3.687-.13-4.88-2.89-3.58-2.387 1.113-3.167.407-2.34-2.12.187-.567.1-1.433-.26-2.6-.187-.6-.307-1.433-.36-2.5a5.123 5.123 0 0 0-.71-2.37c-.513-.86-.87-1.57-1.07-2.13-.8-2.22-2.323-3.813-4.57-4.78a1.827 1.827 0 0 1-.75-.59l-3.28-4.49Zm18.94 23.77c1.847.82 3.853.913 6.02.28a.54.54 0 0 0 .36-.64c-.193-.92-.193-1.607 0-2.06.58-1.327.197-1.727-1.15-1.2a29.796 29.796 0 0 1-4.54 1.36c-.56.12-.977.307-1.25.56-.72.653-.533 1.22.56 1.7Z"/><path fill="#7C3B1D" d="m120.04 276.25.21-.04c1.6-.22 3.087.043 4.46.79 1.04 3.047 1.99 7.027 2.85 11.94.147.82-.207 1.327-1.06 1.52-3.033 1.187-4.333.3-3.9-2.66a1.69 1.69 0 0 0-.12-.95c-.74-1.707-.983-2.99-.73-3.85.26-.873-.213-1.24-1.42-1.1a.48.48 0 0 1-.48-.24c-.553-.913-.857-1.947-.91-3.1a1.573 1.573 0 0 0-.34-.87c-.647-.847-.167-1.327 1.44-1.44Z"/><path fill="#B76437" d="M208.69 293.31c-1.093-.48-1.28-1.047-.56-1.7.273-.253.69-.44 1.25-.56 1.507-.32 3.02-.773 4.54-1.36 1.347-.527 1.73-.127 1.15 1.2-.193.453-.193 1.14 0 2.06a.54.54 0 0 1-.36.64c-2.167.633-4.173.54-6.02-.28Z"/><path fill="#AD663E" d="M201.75 301.54a21.998 21.998 0 0 1-8.84 2.38 1 1 0 0 0-.42.13c-1.073.653-.903.817.51.49l-2.21 1.71a9.272 9.272 0 0 1-2.28.8c-1.22.26-1.563.763-1.03 1.51.17.234.477.378.83.39 3.193.1 6.34.547 9.44 1.34 1.293 2.88 14.49-2.9 18.25-2.54 1.38.133 3.643-.283 6.79-1.25l.96.04c1.807.48 3.64.537 5.5.17 2.327.3 4.577.05 6.75-.75.46-.013.493.177.1.57a2.72 2.72 0 0 1-1.21.69c-4.1 1.107-6.633 2.873-7.6 5.3-.407 1.033-1.16 1.637-2.26 1.81-2.113.34-4.54.313-7.28-.08-2.327-.333-3.473.187-3.44 1.56.04 1.393.66 2.133 1.86 2.22.96.067 1.507.11 1.64.13.9.14 1.803.123 2.71-.05.252-.051.538-.224.81-.49.667-.66 1.557-.95 2.67-.87.727.053 2.56.04 5.5-.04 1.333.527 1.897 1.437 1.69 2.73-.367 2.293-.587 4.307-.66 6.04-.033.7.097 1.697.39 2.99.22 1.007.323 2.02.31 3.04-.02 1.193-.51 2.567-1.47 4.12a36.88 36.88 0 0 0-2.82 5.56c-.153.38-.153 1.237 0 2.57a.955.955 0 0 1-.32.8c-.947.873-1.09 1.873-.43 3 .78 1.347.677 2.473-.31 3.38-.261.242-.394.546-.35.8l.39 2.1c.05.268-.09.528-.33.61-1.367.453-1.153 1.163.64 2.13.56.307.513.577-.14.81l-4.55 1.61-6.29 1.04c-.753-.073-1.19-.477-1.31-1.21a1.65 1.65 0 0 0-1.62-1.38c-3.527-.033-7.213-.68-11.06-1.94-1.12-.367-1.927-1.083-2.42-2.15-.853-1.833-2.327-2.75-4.42-2.75-2.28 0-3.513-.023-3.7-.07a9.209 9.209 0 0 1-3.4-1.67 1.703 1.703 0 0 0-.89-.34c-1.34-.133-2.41-.737-3.21-1.81-.147-.193-.393-.397-.74-.61l-3.16-1.98c-.216-.134-.388-.431-.47-.81-.2-.867-.567-1.473-1.1-1.82-3.513-2.267-6.013-5.35-7.5-9.25-.34-.893-1.793-2.373-4.36-4.44a1.41 1.41 0 0 0-.89-.3c-3.253-.04-5.6-1.477-7.04-4.31-.167-.34-.395-.594-.64-.71l-7.78-3.63c-.36-.173-.627-.363-.8-.57-1.313-1.587-2.523-2.547-3.63-2.88a8.575 8.575 0 0 1-3.56-2.11c-1.14-1.113-2.253-1.13-3.34-.05l-6.17-12c.533-1.993.723-4.017.57-6.07a1.92 1.92 0 0 0-.33-.89c-.847-1.3-.607-1.98.72-2.04a.636.636 0 0 0 .59-.49c.3-1.447.79-1.357 1.47.27a.3.3 0 0 0 .5.08c1.1-1.267 1.647-.867 1.64 1.2 0 .358.087.682.25.93a6.464 6.464 0 0 0 2.83 2.33c.22.087.42.34.54.68l1.2 3.37c.059.174.334.318.69.36.28.027.363.173.25.44-.087.19-.329.291-.59.25-.607-.087-1.1.043-1.48.39-.247.22-.19.363.17.43l5.15 1.05c.493.1.487.137-.02.11-2.1-.113-1.043.333 3.17 1.34.435.102.81.38 1.04.77.54.887 1.387 1.393 2.54 1.52.31.032.59.205.76.47a5.58 5.58 0 0 0 1.89 1.81c.02.013.66.207 1.92.58.56.167 1.04.483 1.44.95.246.292.516.495.77.58 2.527.867 5.03.847 7.51-.06.208-.075.378-.337.44-.68.127-.653.91-.82 2.35-.5 1.687.373 3.02-.033 4-1.22.233-.285.558-.41.78-.3l.89.45c.38.193.673.29.88.29 1.12-.007 1.553.613 1.3 1.86-.064.316.01.633.2.86 1.147 1.413 1.643 3.043 1.49 4.89-.028.3.137.576.4.67 1.193.42 2.893.757 5.1 1.01.867.093 1.66.567 2.38 1.42.214.252.5.419.81.47.627.1 1.25.223 1.87.37.487.113 1.047.403 1.68.87 1 .733 2.057 1.04 3.17.92.408-.045.77-.281.974-.636.204-.354.225-.783.056-1.154a56.98 56.98 0 0 0-4.42-8.07c-.827-1.247-2.093-1.963-3.8-2.15a1.945 1.945 0 0 1-1.72-1.99c.04-1.32.5-2.367 1.38-3.14a117.376 117.376 0 0 0 1.78-1.57c1.387-1.44 2.917-2.18 4.59-2.22 4.14-.1 6.787-.273 7.94-.52Z"/><path fill="#A26134" d="M246.71 300.25c.113.227.293.323.54.29.073.713.407 1.213 1 1.5-.36.407-.88.58-1.56.52-1.013-.08-1.617.297-1.81 1.13a.389.389 0 0 0 .089.345c.084.096.21.15.341.145l5.62-.2a1.365 1.365 0 0 0 1.26-1.04c.293-1.18-.187-1.673-1.44-1.48 3.127-.393 3.89.57 2.29 2.89a.985.985 0 0 1-.79.39 7.71 7.71 0 0 0-2.73.56c-2.1.84-4.253 1.083-6.46.73a1.055 1.055 0 0 1-.72-.53c-.853-1.527-2.133-1.78-3.84-.76-.8.48-1.633.887-2.5 1.22-2.173.8-4.423 1.05-6.75.75 3.767-1.893 7.77-2.8 12.01-2.72.364.005.66-.195.67-.45.027-.533-.787-.787-2.44-.76a6.376 6.376 0 0 1-1.63-.19c-2.28-.56-4.503-.027-6.67 1.6-.733.547-2.38.97-4.94 1.27-.093-.54.06-1.247.46-2.12a1.48 1.48 0 0 0-.51-1.85c-3.72-2.533-7.06-3.027-10.02-1.48-.268.14-.589.166-.89.07-1.047-.333-1.873-.173-2.48.48-.867.94-1.683 1.127-2.45.56a2.02 2.02 0 0 0-2.04-.2c-2.76 1.267-5.337 2.28-7.73 3.04-1.027.327-2.28.47-3.76.43a29.39 29.39 0 0 0-3.83.15c-1.413.327-1.583.163-.51-.49a1 1 0 0 1 .42-.13 21.998 21.998 0 0 0 8.84-2.38c1.547-.307 2.867-1.01 3.96-2.11a1.27 1.27 0 0 1 .86-.36c1.64-.047 3.45-.57 5.43-1.57 2.427-1.227 5.083-1.53 7.97-.91.127.027 1.16.18 3.1.46 1.72.247 3.05 1.147 3.99 2.7.127.203.4.367.75.45l2.18.52c.31.073.605.002.75-.18.993-1.28 1.92-1.86 2.78-1.74 1.06.14 2.113.113 3.16-.08 4.513-.833 7.857-.323 10.03 1.53Z"/><path fill="#CC8553" d="M245.75 346.79a45.976 45.976 0 0 1-12.75 9.46c-.68.34-1.867.82-3.56 1.44a21.951 21.951 0 0 1-7.9 1.31l4.55-1.61c.653-.233.7-.503.14-.81-1.793-.967-2.007-1.677-.64-2.13.24-.082.38-.342.33-.61l-.39-2.1c-.044-.254.089-.558.35-.8.987-.907 1.09-2.033.31-3.38-.66-1.127-.517-2.127.43-3a.955.955 0 0 0 .32-.8c-.153-1.333-.153-2.19 0-2.57a36.88 36.88 0 0 1 2.82-5.56c.96-1.553 1.45-2.927 1.47-4.12.013-1.02-.09-2.033-.31-3.04-.293-1.293-.423-2.29-.39-2.99.073-1.733.293-3.747.66-6.04.207-1.293-.357-2.203-1.69-2.73-.247-.467-.077-.573.51-.32.173.073.34.113.5.12a53.82 53.82 0 0 0 3.44-.05c.26-.013.267-.08.02-.2-.767-.367-.753-.957.04-1.77a2.535 2.535 0 0 1 2.4-.7c1.627.373 2.823-.14 3.59-1.54.88-1.607 1.797-2.69 2.75-3.25 1.213-.713 2.487-.94 3.82-.68.34.067.667.057.98-.03l4.16-1.15c1.693-.467 2.89-1.387 3.59-2.76.987-1.907.85-3.113-.41-3.62-.453-.18-1.39-.22-2.81-.12-1.607.12-3.217.087-4.83-.1-.247.033-.427-.063-.54-.29l.08-.75.21.39c.13.229.39.37.68.37 2-.02 3.853-.8 5.56-2.34 1.68-1.527 3.017-1.393 4.01.4l2.05 3.71c.142.258.184.602.12.97a24.73 24.73 0 0 1-2.68 7.82c-.093.167-.17.48-.23.94l-.37 2.77c-.034.258-.281.485-.62.57-2.433.6-3.747 2.17-3.94 4.71a2.42 2.42 0 0 1-.28.93c-.447.86-.393 1.73.16 2.61.167.26.186.58.05.84l-1.98 3.92c-.13.253-.175.586-.13.95.147 1.267-.253 2.33-1.2 3.19-.173.16-.343.427-.51.8l-1.36 3.09c-.131.307-.18.623-.14.91.107.827-.337 1.61-1.33 2.35a1.45 1.45 0 0 0-.37 1.92c.607.993 1.683 1.46 3.23 1.4.347-.007.393.107.14.34-1.373 1.28-2.077 2.523-2.11 3.73Z"/><path fill="#974A32" d="m226.25 305.46-.96.04c-1.12-.5-2.3-.69-3.54-.57a1.717 1.717 0 0 1-.94-.17c-2.387-1.233-5.093-1.423-8.12-.57-3.467.973-8.53 1.743-15.19 2.31-.593.053-1.427-.127-2.5-.54-.833-.907-1.637-1.013-2.41-.32-.324.292-.626.479-.81.5l-.99.11 2.21-1.71a29.39 29.39 0 0 1 3.83-.15c1.48.04 2.733-.103 3.76-.43 2.393-.76 4.97-1.773 7.73-3.04a2.02 2.02 0 0 1 2.04.2c.767.567 1.583.38 2.45-.56.607-.653 1.433-.813 2.48-.48.301.096.622.07.89-.07 2.96-1.547 6.3-1.053 10.02 1.48.6.408.817 1.192.51 1.85-.4.873-.553 1.58-.46 2.12Z"/><path fill="#BA643B" d="M247.25 300.54c1.613.187 3.223.22 4.83.1 1.42-.1 2.357-.06 2.81.12 1.26.507 1.397 1.713.41 3.62-.7 1.373-1.897 2.293-3.59 2.76l-4.16 1.15c-.313.087-.64.097-.98.03-1.333-.26-2.607-.033-3.82.68-.953.56-1.87 1.643-2.75 3.25-.767 1.4-1.963 1.913-3.59 1.54a2.535 2.535 0 0 0-2.4.7c-.793.813-.807 1.403-.04 1.77.247.12.24.187-.02.2a53.82 53.82 0 0 1-3.44.05 1.437 1.437 0 0 1-.5-.12c-.587-.253-.757-.147-.51.32-2.94.08-4.773.093-5.5.04-1.113-.08-2.003.21-2.67.87-.272.266-.558.439-.81.49-.907.173-1.81.19-2.71.05-.133-.02-.68-.063-1.64-.13-1.2-.087-1.82-.827-1.86-2.22-.033-1.373 1.113-1.893 3.44-1.56 2.74.393 5.167.42 7.28.08 1.1-.173 1.853-.777 2.26-1.81.967-2.427 3.5-4.193 7.6-5.3a2.72 2.72 0 0 0 1.21-.69c.393-.393.36-.583-.1-.57.867-.333 1.7-.74 2.5-1.22 1.707-1.02 2.987-.767 3.84.76.165.286.429.48.72.53 2.207.353 4.36.11 6.46-.73a7.71 7.71 0 0 1 2.73-.56.985.985 0 0 0 .79-.39c1.6-2.32.837-3.283-2.29-2.89l-2.5.58c-.593-.287-.927-.787-1-1.5Z"/><path fill="#874F2D" d="M250.75 301.46c1.253-.193 1.733.3 1.44 1.48a1.365 1.365 0 0 1-1.26 1.04l-5.62.2a.433.433 0 0 1-.341-.145.389.389 0 0 1-.089-.345c.193-.833.797-1.21 1.81-1.13.68.06 1.2-.113 1.56-.52l2.5-.58Z"/><path fill="#7C3B1D" d="M229.25 306.71c-1.86.367-3.693.31-5.5-.17.807.08 1.32-.267 1.54-1.04l.96-.04c2.56-.3 4.207-.723 4.94-1.27 2.167-1.627 4.39-2.16 6.67-1.6a6.376 6.376 0 0 0 1.63.19c1.653-.027 2.467.227 2.44.76-.01.255-.306.455-.67.45-4.24-.08-8.243.827-12.01 2.72Z"/><path fill="#7C3B1D" d="M225.29 305.5c-.22.773-.733 1.12-1.54 1.04l-.96-.04a16.909 16.909 0 0 0-8.04-.79 254.878 254.878 0 0 1-9.54 1.7c-.187.027-1.61.427-4.27 1.2-2.093.6-4.137.377-6.13-.67-1.727-.907-1.663-1.567.19-1.98 1.073.413 1.907.593 2.5.54 6.66-.567 11.723-1.337 15.19-2.31 3.027-.853 5.733-.663 8.12.57.287.144.613.203.94.17 1.24-.12 2.42.07 3.54.57Z"/><path fill="#7C3B1D" d="M195 305.96c-1.853.413-1.917 1.073-.19 1.98 1.993 1.047 4.037 1.27 6.13.67 2.66-.773 4.083-1.173 4.27-1.2a254.878 254.878 0 0 0 9.54-1.7c1.093-.04.947.25-.44.87-.36.16-.737.26-1.13.3-3.927.34-6.567 1.47-7.92 3.39a1.945 1.945 0 0 1-2.44.64c-1.753-.853-3.443-1.06-5.07-.62a43.448 43.448 0 0 0-9.44-1.34c-.353-.012-.66-.156-.83-.39-.533-.747-.19-1.25 1.03-1.51a9.272 9.272 0 0 0 2.28-.8l.99-.11c.184-.021.486-.208.81-.5.773-.693 1.577-.587 2.41.32Z"/><path fill="#974A32" d="M222.79 306.5c-3.147.967-5.41 1.383-6.79 1.25-3.76-.36-16.957 5.42-18.25 2.54 1.627-.44 3.317-.233 5.07.62.857.415 1.89.144 2.44-.64 1.353-1.92 3.993-3.05 7.92-3.39.393-.04.77-.14 1.13-.3 1.387-.62 1.533-.91.44-.87 2.74-.387 5.42-.123 8.04.79Z"/><path fill="#925B37" d="M215.25 360.04c-2.66.747-5.327.82-8 .22a173.59 173.59 0 0 0-10.25-1.97c2.167-.027 2.613-.753 1.34-2.18a1.38 1.38 0 0 0-.83-.43 18.325 18.325 0 0 1-3.23-.81 31.76 31.76 0 0 0-3.15-.92 13.623 13.623 0 0 1-6.03-3.21c-.827-.76-1.61-1.327-2.35-1.7a75.66 75.66 0 0 1-2.61-1.39c-.2-.113-1.113-.753-2.74-1.92-.767-.547-1.733-1.123-2.9-1.73-2.04-1.06-4.507-3.107-7.4-6.14a1.767 1.767 0 0 0-.84-.46 8.737 8.737 0 0 1-3.95-2 2.806 2.806 0 0 0-.85-.48c-1.027-.393-2.033-1.263-3.02-2.61-.72-.973-1.973-1.977-3.76-3.01-1.487-.86-2.77-1.783-3.85-2.77a55.653 55.653 0 0 0-4.99-4.1c-.047-.04-.383-.38-1.01-1.02-.547-.56-1.24-.6-2.08-.12l-4.54-8.04c1.087-1.08 2.2-1.063 3.34.05a8.575 8.575 0 0 0 3.56 2.11c1.107.333 2.317 1.293 3.63 2.88.173.207.44.397.8.57l7.78 3.63c.245.116.473.37.64.71 1.44 2.833 3.787 4.27 7.04 4.31.336 0 .65.106.89.3 2.567 2.067 4.02 3.547 4.36 4.44 1.487 3.9 3.987 6.983 7.5 9.25.533.347.9.953 1.1 1.82.082.379.254.676.47.81l3.16 1.98c.347.213.593.417.74.61.8 1.073 1.87 1.677 3.21 1.81.34.033.649.15.89.34a9.209 9.209 0 0 0 3.4 1.67c.187.047 1.42.07 3.7.07 2.093 0 3.567.917 4.42 2.75.493 1.067 1.3 1.783 2.42 2.15 3.847 1.26 7.533 1.907 11.06 1.94a1.65 1.65 0 0 1 1.62 1.38c.12.733.557 1.137 1.31 1.21Z"/><path fill="#784B30" d="M197 358.29a182.02 182.02 0 0 1-8.47-2.97c-1.147-.433-2.797-1.263-4.95-2.49a30.505 30.505 0 0 0-5.09-2.32 49.247 49.247 0 0 1-12.5-6.47l-7.78-5.56c-3.013-2.16-5.427-4.23-7.24-6.21a71.428 71.428 0 0 1-8.22-10.98c.84-.48 1.533-.44 2.08.12.627.64.963.98 1.01 1.02a55.653 55.653 0 0 1 4.99 4.1c1.08.987 2.363 1.91 3.85 2.77 1.787 1.033 3.04 2.037 3.76 3.01.987 1.347 1.993 2.217 3.02 2.61.34.127.623.287.85.48a8.737 8.737 0 0 0 3.95 2c.327.078.617.238.84.46 2.893 3.033 5.36 5.08 7.4 6.14 1.167.607 2.133 1.183 2.9 1.73 1.627 1.167 2.54 1.807 2.74 1.92.86.48 1.73.943 2.61 1.39.74.373 1.523.94 2.35 1.7a13.623 13.623 0 0 0 6.03 3.21c1.16.28 2.21.587 3.15.92 1.047.367 2.123.637 3.23.81.336.052.63.204.83.43 1.273 1.427.827 2.153-1.34 2.18Z"/></g></g></svg>